<?xml version="1.0" standalone="no"?>
<!DOCTYPE svg PUBLIC "-//W3C//DTD SVG 1.1//EN" "http://www.w3.org/Graphics/SVG/1.1/DTD/svg11.dtd" >
<svg xmlns="http://www.w3.org/2000/svg">
<metadata></metadata>
<defs>
<font id="rlfont_regularregular" horiz-adv-x="1228" >
<font-face units-per-em="2048" ascent="1536" descent="-512" />
<missing-glyph horiz-adv-x="452" />
<glyph horiz-adv-x="0" />
<glyph unicode="&#xd;" horiz-adv-x="452" />
<glyph unicode=" "  horiz-adv-x="452" />
<glyph unicode="&#x09;" horiz-adv-x="452" />
<glyph unicode="&#xa0;" horiz-adv-x="452" />
<glyph unicode="!" horiz-adv-x="538" d="M106 119q0 57 40 97t94 40q57 0 96 -40t39 -97q0 -53 -39 -93t-96 -40q-53 0 -93.5 40t-40.5 93zM152 422v1012h194v-949q0 -63 -65 -63h-129z" />
<glyph unicode="&#x22;" horiz-adv-x="755" d="M113 1061v475h157v-408q0 -37 -16 -52t-53 -15h-88zM434 1061v475h158v-408q0 -37 -16.5 -52t-53.5 -15h-88z" />
<glyph unicode="#" horiz-adv-x="1185" d="M31 424v137h225l49 336h-207v133h232l63 404h158l-64 -404h328l64 404h157l-63 -404h188v-133h-213l-51 -336h197v-137h-222l-55 -361q-6 -35 -22.5 -49t-51.5 -14h-92l66 424h-330l-55 -361q-6 -35 -22.5 -49t-51.5 -14h-92l65 424h-200zM412 561h329l50 336h-328z" />
<glyph unicode="$" horiz-adv-x="1189" d="M113 94l47 174q51 -23 108 -41q49 -16 115 -31.5t137 -21.5v512q-68 25 -132 52.5t-116.5 68.5t-86 99.5t-38.5 142.5q-6 98 25 168.5t83 117.5t121.5 73t143.5 34v182h160v-180q72 -6 134.5 -19.5t109.5 -29.5q53 -18 98 -37l-57 -160q-37 18 -80 33q-39 12 -90.5 24.5 t-114.5 18.5v-443q70 -27 138.5 -59.5t122.5 -79.5t88 -112.5t34 -157.5q0 -84 -24.5 -158t-71.5 -131t-120 -94t-167 -47v-123q0 -63 -66 -64h-94v187q-88 6 -162.5 22.5t-128.5 34.5q-66 20 -116 45zM352 1063q4 -59 51.5 -98t116.5 -70v375q-92 -20 -134 -75.5 t-34 -131.5zM680 178q84 18 130 74.5t50 146.5q2 88 -49 139.5t-131 86.5v-447z" />
<glyph unicode="%" horiz-adv-x="1695" d="M70 983q0 98 26.5 170t70.5 118t101.5 67.5t120.5 21.5t120.5 -22.5t101.5 -68.5t71 -117t27 -169q0 -111 -29 -186.5t-74 -123.5t-102.5 -69.5t-114.5 -21.5q-66 0 -123 20.5t-101 68.5t-69.5 124.5t-25.5 187.5zM223 979q0 -125 42 -181.5t126 -56.5q72 0 119 56.5 t47 181.5q0 115 -44 167t-122 52q-168 0 -168 -219zM406 0l737 1434h186l-706 -1371q-33 -63 -97 -63h-120zM997 395q0 98 27 170t71 118t101.5 67.5t120.5 21.5t120.5 -22.5t101.5 -68.5t70.5 -116.5t26.5 -169.5q0 -111 -28.5 -186.5t-73.5 -123.5t-102.5 -69.5 t-114.5 -21.5q-66 0 -123 20.5t-101 68.5t-70 125t-26 187zM1151 391q0 -125 42 -181t126 -56q72 0 119 56t47 181q0 115 -44 167t-122 52q-168 0 -168 -219z" />
<glyph unicode="&#x26;" horiz-adv-x="1337" d="M100 375q0 88 28 156.5t66.5 117.5t80.5 82t69 49q-49 72 -88 139.5t-43 139.5q-6 88 22.5 160.5t84 123t134 78t175.5 27.5q57 0 111.5 -7t95.5 -16q49 -8 92 -20l-37 -160q-41 12 -84 21q-39 8 -86 14t-100 2q-113 -6 -170.5 -56t-53.5 -163q2 -35 19.5 -72t42 -75.5 t54.5 -74.5t54 -67q72 -86 160 -189.5t191 -215.5q27 53 38 106t15 96q4 51 -2 99h-129v137h417v-102q0 -18 -10 -26.5t-26 -8.5h-74q0 -78 -9.5 -138.5t-24.5 -110.5t-37.5 -93t-47.5 -82q63 -68 110.5 -124t55.5 -63q20 -23 10 -41t-24 -18h-150q-12 12 -26 31 q-14 16 -33 37.5t-45 50.5q-90 -82 -182.5 -110.5t-180.5 -28.5q-86 0 -170 24.5t-148.5 73.5t-104.5 123.5t-40 173.5zM285 397q0 -43 16 -87t52 -79.5t91.5 -59.5t135.5 -24q90 0 150.5 33t84.5 62l-369 422q-18 -8 -45.5 -25.5t-53 -49.5t-44 -78t-18.5 -114z" />
<glyph unicode="'" horiz-adv-x="473" d="M154 1061v475h157v-408q0 -37 -16 -52t-53 -15h-88z" />
<glyph unicode="(" horiz-adv-x="512" d="M78 682q0 168 21.5 306t54 248t70.5 189.5t70 133t54 79.5l23 27l112 -68q-66 -92 -118 -225q-45 -115 -82 -284.5t-37 -403.5q0 -233 36.5 -403t82.5 -285q53 -133 118 -225l-110 -74l-23 27q-22 26 -55 80.5t-71 135t-70.5 190.5t-54 247t-21.5 305z" />
<glyph unicode=")" horiz-adv-x="512" d="M6 -238q66 94 119 228q45 115 82 285.5t37 404.5q0 233 -37 405t-82 287q-53 133 -119 225l113 68l23 -27q22 -26 53.5 -79.5t69.5 -134.5t71 -190.5t54.5 -248.5t21.5 -307t-21.5 -306.5t-54.5 -248t-71 -191.5t-70.5 -136t-54.5 -80l-23 -27z" />
<glyph unicode="*" horiz-adv-x="919" d="M70 1102l45 133l272 -92v305h148v-305l276 86l41 -131l-272 -84l182 -266l-129 -74l-176 260l-166 -258l-131 76l182 264z" />
<glyph unicode="+" horiz-adv-x="1030" d="M39 475v137h397v435h158v-435h397v-137h-397v-412q0 -63 -66 -63h-92v475h-397z" />
<glyph unicode="," horiz-adv-x="473" d="M92 100q-6 53 24.5 99.5t96.5 52.5q66 10 109 -26t51 -93q14 -131 -22 -215t-83 -133q-55 -57 -133 -86l-35 82q86 39 113 102.5t6 116.5q-57 -10 -89 20.5t-38 79.5z" />
<glyph unicode="-" horiz-adv-x="690" d="M70 473v141h551v-141h-551z" />
<glyph unicode="." horiz-adv-x="403" d="M66 119q0 57 39.5 97t93.5 40q57 0 96 -40t39 -97q0 -53 -39 -93t-96 -40q-53 0 -93 40t-40 93z" />
<glyph unicode="/" horiz-adv-x="878" d="M-10 0l737 1434h186l-706 -1371q-33 -63 -96 -63h-121z" />
<glyph unicode="0" d="M98 731q0 184 28 318.5t89 220.5t159.5 128t237.5 42q133 0 231.5 -42t163 -131t95.5 -228.5t31 -336.5q0 -348 -127 -534t-402 -186q-137 0 -233.5 48t-156.5 142t-88 234.5t-28 324.5zM293 715q0 -160 16.5 -265.5t53 -170t96 -91t145.5 -26.5q88 0 149.5 26.5 t101.5 91t58.5 171t18.5 266.5q0 158 -18.5 264t-57.5 172t-99.5 93.5t-142.5 27.5q-88 0 -149.5 -27.5t-99 -93.5t-55 -172.5t-17.5 -265.5z" />
<glyph unicode="1" d="M242 1350l487 94l2 -1278h244v-103q0 -63 -66 -63h-635v166h261v1069l-269 -41z" />
<glyph unicode="2" d="M154 207q0 109 53 190.5t133 149t172 125t172 114t133 119t53 137.5q0 41 -11 83t-41 76t-82 54.5t-136 20.5t-152.5 -9.5t-117.5 -19.5q-57 -12 -105 -28l-28 149q51 20 114 39q53 16 124 28.5t151 12.5q256 0 372.5 -100.5t112.5 -298.5q-6 -106 -60.5 -191.5 t-134 -155t-172 -129t-170 -115t-130 -109.5t-52.5 -113v-70h711v-103q0 -63 -66 -63h-839q0 6 -1 17.5t-1 35t-1 61.5t-1 93z" />
<glyph unicode="3" d="M172 33l25 164q49 -8 108 -17q51 -6 119 -10t149 -4q59 0 114.5 17.5t98.5 51t69 83t26 114.5q0 135 -73 187.5t-216 52.5h-232v164h218q61 0 112 12t90 39.5t60.5 70.5t21.5 105q0 39 -15.5 77t-46 68.5t-77.5 49t-111 18.5q-86 0 -157.5 -10.5t-124.5 -20.5 q-63 -12 -115 -28l-33 147q70 23 142 41q61 16 134.5 29.5t141.5 13.5q223 0 337 -92t124 -248q6 -98 -24.5 -164.5t-69.5 -107.5q-45 -49 -105 -76q61 -23 111 -66q41 -39 76.5 -104.5t35.5 -169.5q0 -117 -40.5 -198t-112.5 -133t-168 -75.5t-207 -23.5q-78 2 -147.5 8 t-122.5 14q-63 8 -115 21z" />
<glyph unicode="4" d="M121 356v160l674 918h196v-912h168v-166h-168v-293q0 -63 -67 -63h-127v356h-676zM342 522h455v641z" />
<glyph unicode="5" d="M170 57l37 150q45 -14 100 -25q47 -10 113.5 -16t148.5 -6q90 0 151.5 23.5t100.5 62.5t57.5 90t22.5 108q6 160 -86 230.5t-289 70.5h-293l-2 689h809v-162h-612v-363h145q117 0 214.5 -22.5t166 -75.5t107.5 -142t39 -225q0 -82 -31 -162.5t-93.5 -146t-156.5 -106.5 t-221 -41q-102 0 -181 10t-134 25q-66 14 -113 34z" />
<glyph unicode="6" d="M98 526q0 88 33 186.5t92 200.5q10 16 28.5 48t42 72t50.5 85t53 90q61 104 133 226h228l-367 -568q12 6 33.5 18.5t53.5 25t78 21.5t112 7q80 -2 158.5 -29.5t143 -86t104.5 -146.5t40 -209q0 -96 -38 -182t-104.5 -151.5t-159.5 -104.5t-204 -39q-125 0 -222 40 t-163.5 110.5t-98.5 170t-26 215.5zM307 485q0 -158 76 -236.5t238 -78.5q68 0 123 25.5t92.5 67.5t58 95.5t20.5 108.5q0 129 -77.5 213t-231.5 84q-74 0 -130 -21.5t-94 -59.5t-56.5 -89t-18.5 -109z" />
<glyph unicode="7" d="M168 1272v162h919l3 -177l-666 -1257h-211l674 1272h-719z" />
<glyph unicode="8" d="M100 391q0 86 30 151.5t72 112.5t85 76t71 39q-74 45 -121 113.5t-47 189.5q0 92 34 162t92.5 118t137 71.5t169.5 23.5q86 0 165.5 -20.5t140 -64.5t96.5 -115.5t36 -174.5q0 -63 -22.5 -119.5t-56.5 -99.5t-72.5 -70.5t-71.5 -35.5q53 -23 105 -53.5t93 -72.5 t66.5 -97.5t25.5 -127.5q2 -190 -127 -299.5t-376 -109.5q-129 0 -227.5 29.5t-164 84t-99.5 128t-34 161.5zM303 399q0 -117 81 -179t239 -62q160 0 229.5 55t73.5 174q0 74 -38 126t-98.5 88t-132 58.5t-139.5 40.5q-47 -16 -86 -40.5t-67.5 -60.5t-45 -85t-16.5 -115z M385 1071q0 -53 17.5 -94t54.5 -74t93 -56.5t136 -43.5q18 6 48 28.5t59.5 57.5t50 80t20.5 98q0 117 -60.5 165t-185.5 48q-100 0 -166.5 -48t-66.5 -161z" />
<glyph unicode="9" d="M96 967q0 96 38 183t104.5 153.5t160 105.5t203.5 39q125 0 222.5 -40t163 -112.5t98 -172t26.5 -216.5q0 -88 -32.5 -186t-92.5 -201q-10 -18 -30.5 -49t-48 -71t-58.5 -85l-62 -90q-72 -104 -157 -225h-228l404 567q-12 -6 -32.5 -16t-51.5 -19.5t-75 -16.5t-105 -7 q-80 0 -159 26.5t-143.5 82t-104.5 142.5t-40 208zM295 973q0 -129 78 -213t231 -84q74 0 130.5 21.5t94 59.5t56 89t18.5 108q0 158 -75.5 239t-237.5 81q-68 0 -123 -26.5t-93 -69.5t-58.5 -96.5t-20.5 -108.5z" />
<glyph unicode=":" horiz-adv-x="471" d="M88 119q0 57 40 97t93 40q57 0 96 -40t39 -97q0 -53 -39 -93t-96 -40q-53 0 -93 40t-40 93zM88 707q0 57 40 97t93 40q57 0 96 -40t39 -97q0 -53 -39 -93.5t-96 -40.5q-53 0 -93 40t-40 94z" />
<glyph unicode=";" horiz-adv-x="471" d="M88 707q0 57 40 97t93 40q57 0 96 -40t39 -97q0 -53 -39 -93.5t-96 -40.5q-53 0 -93 40t-40 94zM92 100q-6 53 24.5 99.5t96.5 52.5q66 10 109 -26t51 -93q14 -131 -22 -215t-83 -133q-55 -57 -133 -86l-35 82q86 39 113 102.5t6 116.5q-57 -10 -89 20.5t-38 79.5z" />
<glyph unicode="&#x3c;" horiz-adv-x="929" d="M10 621v139l910 334v-156l-699 -248l699 -254v-160z" />
<glyph unicode="=" horiz-adv-x="1030" d="M39 319v138h948v-72q0 -66 -63 -66h-885zM43 643v137h946v-137h-946z" />
<glyph unicode="&#x3e;" horiz-adv-x="929" d="M10 276v160l699 254l-699 248v156l910 -334v-139z" />
<glyph unicode="?" horiz-adv-x="1050" d="M94 1364q53 23 115 41q53 16 117.5 29.5t134.5 13.5q100 0 180 -29.5t134 -82t79 -127t18 -162.5q-6 -78 -38.5 -134.5t-77.5 -99.5t-97.5 -77t-95.5 -64.5t-71.5 -63.5t-28.5 -71v-115h-195v119q0 66 29 112.5t73 85.5t95 71t96 66.5t78 75.5t39 97q25 233 -244 233 q-55 0 -110.5 -10t-98.5 -21q-53 -14 -98 -30zM229 119q0 57 40 97t93 40q57 0 96.5 -40t39.5 -97q0 -53 -39.5 -93t-96.5 -40q-53 0 -93 40t-40 93z" />
<glyph unicode="@" horiz-adv-x="1701" d="M133 721q0 197 66.5 336t173 226t238.5 127t263 40q119 0 240 -32t217 -105.5t157.5 -196.5t61.5 -305q0 -102 -28.5 -191.5t-82 -154t-132 -98t-177.5 -25.5q-41 2 -66.5 17.5t-40.5 34t-22.5 38t-11.5 33.5q-12 -23 -37.5 -42.5t-54.5 -33.5t-56.5 -22.5t-45.5 -10.5 q-68 -6 -128.5 12.5t-103.5 63.5t-63.5 118t-10.5 177q12 104 49 175t88.5 116t110 66.5t113.5 25.5q68 6 127 -3t102 -22q51 -16 92 -36q-14 -106 -22 -197q-4 -39 -8 -77t-8.5 -71.5t-6.5 -58t-4 -37.5q-4 -39 4.5 -62.5t23.5 -36.5t36.5 -17.5t42.5 -2.5q31 4 61.5 23.5 t53 57.5t37 96.5t14.5 142.5q0 109 -32 198t-96.5 153.5t-162.5 100t-230 35.5q-133 0 -240.5 -36.5t-183 -109.5t-117.5 -179.5t-42 -245.5q0 -154 38 -263.5t107.5 -178t167.5 -101t219 -32.5q78 0 145.5 14t116.5 31q57 20 107 47l68 -129q-51 -35 -119 -62 q-59 -23 -141 -42t-191 -21q-133 -2 -255 34.5t-216 122.5t-149.5 227.5t-55.5 348.5zM659 727q-12 -131 27 -187.5t127 -50.5q47 4 99.5 52.5t66.5 140.5q6 41 11 90t8 90t4 55l4 41q2 0 -11.5 6.5t-36 12.5t-53.5 8t-63 -4q-80 -16 -125 -74.5t-58 -179.5z" />
<glyph unicode="A" horiz-adv-x="1282" d="M39 0l510 1434h213q129 -383 231 -684q43 -129 85 -251t75 -220q37 -114 74 -216q3 -11 3 -20q0 -43 -61 -43h-155l-111 360h-522l-123 -360h-219zM426 524h430l-205 678z" />
<glyph unicode="B" horiz-adv-x="1232" d="M164 8v1409q53 6 112 15q51 6 116 11t132 5q143 0 242.5 -23.5t161 -72.5t89 -124t27.5 -175q0 -98 -44 -171t-115 -110q119 -39 176 -135t57 -217q0 -231 -131 -331.5t-401 -100.5q-78 0 -154 3t-135 7q-70 4 -133 10zM356 172q49 -2 97 -4q41 -2 86 -2h79 q92 0 151.5 18.5t94.5 52t48.5 83t13.5 110.5q0 106 -72 167.5t-211 61.5q-41 0 -89 -1t-93 -1q-53 -2 -105 -2v-483zM356 825h236q125 0 189.5 66t64.5 156q0 59 -13.5 102t-47 71.5t-91 42t-147.5 13.5q-47 0 -82 -1t-59 -3q-29 -2 -50 -4v-443z" />
<glyph unicode="C" horiz-adv-x="1157" d="M92 735q0 186 46 321.5t128 222.5t194.5 128t244.5 41q70 0 131 -8t108 -19q53 -12 100 -26l-45 -160q-47 14 -100 25q-45 10 -99 17q-35 4 -68 4q-19 0 -38 -1q-88 -6 -159.5 -40t-123 -101.5t-79 -170t-27.5 -241.5q0 -156 20.5 -260.5t66.5 -167.5t122 -93t186 -36 q21 -1 41 -1q35 0 71 4q56 7 103 17q53 10 103 27l41 -164q-51 -18 -111 -33q-51 -12 -118.5 -22t-143.5 -10q-125 0 -233.5 34.5t-188.5 119.5t-126 229.5t-46 363.5z" />
<glyph unicode="D" horiz-adv-x="1292" d="M164 8v1417q51 4 119 11q57 4 134 8t173 4q137 0 248.5 -39t191.5 -126t124 -225t44 -335t-46 -336t-129 -228t-195.5 -130t-247.5 -41q-100 0 -177 3t-131 7q-63 4 -108 10zM358 168q57 -2 117.5 -4t130.5 -2q78 0 148.5 24.5t125 88t87 174t32.5 284.5t-32.5 281.5 t-86 167t-120 80t-133.5 20.5q-76 0 -139.5 -1t-129.5 -5v-1108z" />
<glyph unicode="E" horiz-adv-x="1107" d="M164 0v1434h858v-162h-664v-443h615v-163h-615v-492h664v-108q0 -66 -70 -66h-788z" />
<glyph unicode="F" horiz-adv-x="1079" d="M164 0v1434h854v-162h-660v-455h611v-166h-611v-585q0 -66 -69 -66h-125z" />
<glyph unicode="G" horiz-adv-x="1267" d="M92 735q0 328 160 515.5t459 197.5h23q56 0 112 -8q67 -10 121 -23q63 -14 118 -33l-47 -159q-47 16 -102 26q-47 10 -112 17q-42 5 -87 5q-24 0 -49 -1q-180 -8 -281.5 -148.5t-101.5 -396.5q0 -125 21.5 -228.5t74 -178t137.5 -116.5t212 -42q35 0 68.5 4t62.5 8 q33 6 63 12v480h-272v163h467v-735q0 -29 -12.5 -40t-30.5 -17q-27 -10 -73 -18.5t-99.5 -16.5t-108.5 -12t-100 -4q-100 0 -210 34.5t-202 120.5t-151.5 230.5t-59.5 363.5z" />
<glyph unicode="H" horiz-adv-x="1300" d="M164 0v1434h194v-605h584v605h195v-1371q0 -63 -66 -63h-129v666h-584v-666h-194z" />
<glyph unicode="I" horiz-adv-x="522" d="M164 0v1434h194v-1371q0 -63 -65 -63h-129z" />
<glyph unicode="J" horiz-adv-x="606" d="M31 0v174q25 -2 55.5 -1t52.5 3q55 4 87 35t32 84v1139h195v-1147q0 -125 -82 -201t-230 -84q-18 0 -30.5 -1t-22.5 -1h-23.5h-33.5z" />
<glyph unicode="K" horiz-adv-x="1222" d="M164 0v1434h194v-709l541 709h238l-469 -598l506 -766q12 -20 12 -36q0 -8 -2 -14q-8 -20 -45 -20h-164l-434 694l-183 -227v-467h-194z" />
<glyph unicode="L" horiz-adv-x="1040" d="M164 0v1434h194v-1260h652v-108q0 -66 -70 -66h-776z" />
<glyph unicode="M" horiz-adv-x="1794" d="M164 0v1434h305l428 -1229l436 1229h297v-1371q0 -63 -65 -63h-135l14 1227l-434 -1227h-232l-428 1225l15 -1225h-201z" />
<glyph unicode="N" horiz-adv-x="1353" d="M164 0v1434h262l584 -1164l-23 1164h203v-1371q0 -35 -14.5 -49t-49.5 -14h-182l-592 1176l10 -1176h-198z" />
<glyph unicode="O" horiz-adv-x="1333" d="M92 739q0 156 36 286t108.5 224t180.5 146.5t251 52.5q150 0 258 -53.5t179 -149.5t104.5 -232t33.5 -304q0 -166 -37 -298t-110.5 -226.5t-183 -144.5t-255.5 -50q-150 0 -256 51t-174.5 147.5t-101.5 235.5t-33 315zM301 729q0 -561 354 -561q193 0 285 136t92 427 q0 289 -95 419t-255 130q-86 0 -156.5 -31.5t-120 -98.5t-77 -171.5t-27.5 -249.5z" />
<glyph unicode="P" horiz-adv-x="1116" d="M164 0v1423q49 6 108 13q49 4 115.5 8t138.5 4q248 0 373 -107.5t125 -349.5q0 -135 -43 -226t-114.5 -148.5t-166 -82t-196.5 -24.5q-41 0 -68.5 1t-77.5 5v-448q0 -37 -16 -52.5t-53 -15.5h-125zM358 674q18 -2 41 -4q20 -2 50 -2h67q143 0 218 75.5t75 241.5 q0 143 -64.5 218t-205.5 75q-47 0 -81 -1t-57 -3q-25 -2 -43 -4v-596z" />
<glyph unicode="Q" horiz-adv-x="1349" d="M92 739q0 156 36 286t108.5 224t180.5 146.5t251 52.5q150 0 258 -53.5t179 -149.5t104.5 -232t33.5 -304q0 -289 -108 -469q23 -23 47 -45.5t45.5 -43t36 -34t16.5 -13.5q16 -17 16 -34q0 -18 -18 -35q-10 -10 -26.5 -25.5t-32.5 -32.5q-20 -18 -41 -38l-162 163 q-140 -112 -355 -112h-4q-150 0 -256 51t-174.5 147.5t-101.5 235.5t-33 315zM301 729q0 -561 354 -561q68 0 128.5 13.5t107.5 45.5l-209 201l131 137l184 -190q23 70 29 159t6 197q0 289 -95 419t-255 130q-86 0 -156.5 -31.5t-120 -98.5t-77 -171.5t-27.5 -249.5z" />
<glyph unicode="R" horiz-adv-x="1210" d="M164 0v1423q59 6 127 13q57 4 127.5 8t142.5 4q246 0 372 -102.5t126 -329.5q0 -164 -67.5 -261.5t-176.5 -144.5q12 -23 41 -77t68 -127.5t83 -159.5t91 -172q10 -19 10 -33q0 -11 -8 -21q-16 -20 -51 -20h-138q-68 143 -120 258q-23 49 -45.5 96t-40 85t-28.5 61.5 t-13 27.5q-10 18 -20.5 25.5t-33.5 7.5h-75h-84t-93 4v-565h-194zM358 719q27 -2 60 -4q27 -2 61.5 -2h71.5q143 0 218 68.5t75 228.5q0 135 -64.5 201.5t-206.5 66.5q-47 0 -87 -1t-68 -3q-35 -2 -60 -4v-551z" />
<glyph unicode="S" horiz-adv-x="1189" d="M113 94l47 174q66 -27 137 -49q61 -18 141 -33.5t166 -15.5q117 0 184.5 60.5t71.5 168.5v13q0 78 -46 124q-50 50 -127 85.5t-168 64.5t-172 73t-137 111.5t-63 178.5q-1 15 -1 29q0 94 35 160q40 76 106.5 122.5t150.5 67t168 20.5q86 0 161 -14.5t132 -30.5 q68 -20 123 -45l-57 -160q-45 20 -101 39q-47 16 -114.5 28.5t-145.5 12.5q-134 0 -198 -62q-55 -53 -56 -129q0 -12 2 -24q6 -63 60.5 -104t133.5 -74t170 -67t168 -83t128 -123.5t51 -189.5q0 -92 -28.5 -171t-85 -137.5t-142.5 -92t-199 -33.5q-104 0 -194 16t-158 37 q-80 23 -143 53z" />
<glyph unicode="T" horiz-adv-x="1114" d="M63 1272v162h988v-162h-398v-1209q0 -63 -65 -63h-129v1272h-396z" />
<glyph unicode="U" horiz-adv-x="1310" d="M154 530v904h194v-938q0 -70 20.5 -130.5t59.5 -104.5t97.5 -68.5t136.5 -24.5q76 0 132 25.5t93 68.5t55.5 99.5t18.5 117.5v955h196v-914q0 -102 -24.5 -198.5t-84 -170t-157.5 -118.5t-244 -45q-145 0 -240.5 44t-151.5 119.5t-78.5 173t-22.5 205.5z" />
<glyph unicode="V" horiz-adv-x="1280" d="M63 1434h222l354 -1246l377 1246h211l-451 -1368q-20 -66 -86 -66h-176z" />
<glyph unicode="W" horiz-adv-x="1740" d="M66 1434h217l196 -1153l275 1153l225 -2l256 -1153l225 1153h219l-329 -1369q-20 -63 -84 -63h-146l-254 1188l-288 -1188h-218z" />
<glyph unicode="X" horiz-adv-x="1290" d="M106 0l426 741l-362 693h229l267 -541l270 541h221l-362 -703l381 -661q9 -15 9 -28q-1 -10 -7 -20q-14 -22 -35 -22h-174l-314 578l-317 -578h-232z" />
<glyph unicode="Y" horiz-adv-x="1218" d="M57 1434h232l319 -648l326 648h231l-463 -856v-517q0 -35 -15 -48t-50 -13h-129v578z" />
<glyph unicode="Z" horiz-adv-x="1183" d="M90 0v205l752 1067h-731v162h954v-195l-768 -1065h786v-113q0 -35 -15 -48t-50 -13h-928z" />
<glyph unicode="[" horiz-adv-x="512" d="M33 -330v1882h319v-139h-162v-1603h179v-74q0 -66 -70 -66h-266z" />
<glyph unicode="\" horiz-adv-x="512" d="M-70 1493l144 43l516 -1536q10 -33 0 -51.5t-41 -30.5q-2 0 -13.5 -3t-27.5 -7q-18 -6 -39 -10z" />
<glyph unicode="]" horiz-adv-x="512" d="M123 -190h178v1603h-162v139h320v-1882h-266q-70 0 -70 66v74z" />
<glyph unicode="^" horiz-adv-x="1331" d="M197 643l391 797h168l395 -807h-176l-305 653l-303 -643h-170z" />
<glyph unicode="_" horiz-adv-x="1026" d="M0 -174h1026v-131h-1026v131z" />
<glyph unicode="`" horiz-adv-x="675" d="M139 1323l66 127l323 -195l-49 -96z" />
<glyph unicode="a" horiz-adv-x="1040" d="M70 322q0 158 89 235.5t232 89.5q41 2 89 4t94.5 4t83 2h55.5v78q0 84 -37 123t-144 39q-72 0 -136 -8t-111 -19q-57 -12 -105 -26l-28 141q55 18 118 35q53 14 122 25.5t143 13.5h17q70 -1 130 -15q68 -16 118 -55t78.5 -103.5t28.5 -158.5v-684q-43 -14 -100 -25 q-49 -10 -120 -19t-163 -11h-18q-208 0 -320 87q-116 91 -116 247zM268 334q0 -100 60.5 -139t158.5 -39q37 0 77 1t73 5q37 4 76 8v344q-55 -4 -107 -6q-43 -4 -88 -5t-67 -5q-106 -12 -144.5 -52t-38.5 -112z" />
<glyph unicode="b" horiz-adv-x="1093" d="M143 41v1448l197 39v-506q41 10 84 18q35 6 77 12.5t77 6.5q78 0 155.5 -26.5t139 -86t100.5 -154t39 -229.5q0 -164 -37 -271.5t-101.5 -174t-150.5 -95t-186 -32.5q-24 -1 -48 -1q-49 0 -95 5q-70 8 -126 18q-68 12 -125 29zM338 170q31 -4 61 -6q27 -2 56.5 -3 t54.5 -1q68 0 123 16.5t94 57t60.5 112.5t21.5 180q0 197 -73.5 280t-207.5 83q-29 0 -62.5 -3t-62.5 -7q-35 -4 -65 -9v-700z" />
<glyph unicode="c" horiz-adv-x="972" d="M82 537q0 135 36 233t101.5 162.5t156.5 95.5t202 31q72 0 130 -12.5t99 -26.5q49 -16 88 -37l-68 -145q-39 18 -86 30q-41 10 -94 16q-33 4 -71 5q-23 0 -48 -2q-252 -23 -252 -357q0 -166 61.5 -262t194.5 -104q23 -1 45 -1q39 0 75 4q57 7 98 17q49 10 90 29l61 -141 q-41 -25 -94 -43q-45 -16 -108.5 -28.5t-143.5 -12.5q-106 0 -193.5 25.5t-149.5 88t-96 169t-34 266.5z" />
<glyph unicode="d" horiz-adv-x="1107" d="M82 530q0 145 41 246t110.5 164.5t161.5 91t193 27.5q29 0 60.5 -2t60.5 -6q31 -4 61 -9v449l195 37v-1481q-51 -18 -111 -31q-51 -10 -115.5 -19t-132.5 -9q-106 0 -201.5 23.5t-167 85t-113.5 166t-42 267.5zM283 532q0 -106 22.5 -177.5t64.5 -115.5t104.5 -62.5 t143.5 -18.5q29 0 55.5 2t49.5 6q25 4 47 8v690q-12 6 -37 15q-23 4 -58.5 9t-88.5 5q-66 0 -121 -18.5t-96 -61.5t-63.5 -111.5t-22.5 -169.5z" />
<glyph unicode="e" horiz-adv-x="1058" d="M82 530q0 137 36 237.5t99.5 165t147.5 95.5t182 31q96 0 175 -25.5t136 -85t88 -158t31 -241.5v-42t-2 -34h-694q0 -90 23.5 -150.5t67.5 -97.5t104 -53t134 -16q59 0 115.5 11t97.5 26q49 16 90 38l66 -141q-47 -29 -109 -51q-53 -20 -129.5 -35.5t-175.5 -15.5 q-236 0 -359.5 132t-123.5 410zM283 614h501q-2 78 -26 140q-10 27 -27.5 51t-42 44.5t-57.5 33t-78 12.5q-139 0 -202.5 -70.5t-67.5 -210.5z" />
<glyph unicode="f" horiz-adv-x="768" d="M43 887v160h172v129q0 174 88 273t258 99q53 0 98.5 -7t77.5 -17q37 -10 68 -25l-64 -139q-20 8 -43 16q-23 6 -51.5 12.5t-62.5 6.5q-96 0 -136 -60.5t-40 -140.5v-147h278v-160h-278v-819q0 -37 -16.5 -52.5t-53.5 -15.5h-123v887h-172z" />
<glyph unicode="g" horiz-adv-x="1101" d="M80 510q0 279 130 414t372 135q72 0 138 -8.5t120 -18.5q61 -12 116 -26v-938q0 -139 -22.5 -244t-73.5 -176.5t-134 -107.5t-204 -36q-104 0 -182 15.5t-131 34.5q-61 23 -107 49l66 141q43 -20 96 -37q45 -14 105.5 -24.5t128.5 -10.5q143 0 203.5 78t60.5 268 q-45 -8 -92 -16q-41 -6 -90.5 -10t-94.5 -4q-84 0 -157.5 34.5t-129 101t-87 164t-31.5 222.5zM279 502q0 -106 24.5 -173t64.5 -104t91 -50t106 -13t93 3t61 7q27 6 43 12v693q-29 4 -60 8q-27 4 -59.5 6t-62.5 2q-68 0 -123.5 -16.5t-95 -59.5t-61 -119.5t-21.5 -195.5z " />
<glyph unicode="h" horiz-adv-x="1116" d="M143 0v1489l197 39v-596q41 35 92 63q43 23 101.5 43.5t128.5 20.5q147 0 235 -92.5t88 -251.5v-647q0 -37 -16.5 -52.5t-53.5 -15.5h-124v729q0 76 -41 119q-39 41 -108 41h-7q-51 -2 -102.5 -20.5t-94.5 -41.5q-51 -27 -98 -59v-768h-197z" />
<glyph unicode="i" horiz-adv-x="481" d="M117 1378q0 53 35.5 89t85.5 36q53 0 87.5 -35.5t34.5 -89.5q0 -49 -34.5 -85t-87.5 -36q-49 0 -85 36t-36 85zM143 0v1047h195v-979q0 -37 -16.5 -52.5t-53.5 -15.5h-125z" />
<glyph unicode="j" horiz-adv-x="479" d="M-63 -328h46t46 2q115 6 114 115v1258h197v-1233q0 -66 -13.5 -121t-46 -95t-88 -62.5t-141.5 -22.5h-32.5h-22.5h-23.5h-35.5v159zM117 1378q0 53 35.5 89t85.5 36q53 0 87.5 -35.5t34.5 -89.5q0 -49 -34.5 -85t-87.5 -36q-49 0 -85 36t-36 85z" />
<glyph unicode="k" horiz-adv-x="1044" d="M143 0v1489l195 41v-905l412 422h237l-420 -420l424 -564q9 -14 9 -26q0 -9 -4 -17q-11 -20 -40 -20h-157l-357 500l-104 -103v-397h-195z" />
<glyph unicode="l" horiz-adv-x="579" d="M143 283v1208l195 39v-1245q0 -119 115 -119h73v-98q0 -37 -16 -51.5t-53 -16.5h-27q-141 2 -214 74.5t-73 208.5z" />
<glyph unicode="m" horiz-adv-x="1640" d="M143 0v1047h195v-115q37 35 84 63q41 23 93 43.5t118 20.5q94 0 158.5 -43t87.5 -113q72 63 146.5 107.5t180.5 48.5h11q75 -1 129 -27q58 -28 93.5 -76.5t51.5 -112t16 -128.5v-647q0 -37 -16 -52.5t-53 -15.5h-125v723q0 86 -36 126t-97 40q-43 0 -89.5 -20.5 t-84.5 -43.5q-45 -27 -86 -61q0 -10 1 -26.5t1 -32v-28.5v-20v-657h-195v723q0 86 -36 126t-97 40q-41 0 -85 -19.5t-83 -42.5q-45 -27 -88 -59v-768h-195z" />
<glyph unicode="n" horiz-adv-x="1118" d="M143 0v1044h197v-112q41 35 92 63q43 23 101.5 43.5t128.5 20.5q147 0 235 -92.5t88 -251.5v-647q0 -37 -16.5 -52.5t-53.5 -15.5h-124v729q0 76 -41 119q-39 41 -108 41h-7q-51 -2 -102.5 -20.5t-94.5 -41.5q-51 -27 -98 -59v-768h-197z" />
<glyph unicode="o" horiz-adv-x="1091" d="M82 541q0 135 38 233t102.5 161.5t147.5 93.5t175 30q84 0 167 -31t149.5 -95.5t107.5 -167.5t41 -247q0 -143 -41 -244.5t-107.5 -165t-149.5 -92t-167 -28.5q-92 0 -176 28.5t-147.5 94t-101.5 171t-38 259.5zM281 541q0 -104 15 -176t48 -117t83 -64.5t120 -19.5 q125 0 193.5 84t68.5 293q0 186 -67.5 270t-194.5 84q-139 0 -202.5 -84t-63.5 -270z" />
<glyph unicode="p" horiz-adv-x="1093" d="M143 -440v1446q61 14 127 26q55 10 124 18.5t134 8.5q96 0 184.5 -26.5t155 -86t105.5 -154t39 -229.5q0 -152 -40 -258t-105.5 -176t-150.5 -101.5t-177 -31.5q-27 0 -61 3t-64 7q-37 4 -74 10v-417zM338 182q27 -6 59 -12q57 -10 135 -10q121 0 199 86t78 280 q0 197 -73.5 282t-207.5 85q-29 0 -62.5 -3t-62.5 -7q-35 -4 -65 -9v-692z" />
<glyph unicode="q" horiz-adv-x="1110" d="M84 530q0 145 45 246t119 164.5t169 91t195 27.5q66 0 128.5 -8.5t113.5 -18.5q59 -10 113 -24v-1411l-195 -37v469q-29 -12 -63 -21q-29 -8 -70 -14t-88 -6q-78 0 -161 23.5t-150.5 85t-111.5 166t-44 267.5zM285 532q0 -106 21.5 -177.5t58 -114.5t88 -61.5 t110.5 -20.5h22q33 0 61 4q38 6 67 16q33 10 59 25v671q-14 4 -37 9q-20 4 -50 7t-75 3q-66 0 -125 -18.5t-104 -61.5t-70.5 -111.5t-25.5 -169.5z" />
<glyph unicode="r" horiz-adv-x="811" d="M143 0v1047h195v-113q23 33 55 59q29 23 71 43.5t101 24.5q14 1 27 1q38 0 72 -8q46 -12 75 -26q37 -16 64 -39l-72 -153q-29 23 -61 36q-29 12 -65 20q-19 4 -38 5q-19 0 -39 -4q-57 -12 -93 -38t-58 -52q-25 -31 -39 -68v-667q0 -37 -16.5 -52.5t-53.5 -15.5h-125z" />
<glyph unicode="s" horiz-adv-x="954" d="M100 66l43 153q53 -18 109 -33q47 -12 105.5 -23t113.5 -11h8q86 0 124 43q40 45 42 116v6q0 53 -37 84q-39 33 -98 54.5t-128 40t-128 49t-99 81t-40 134.5q0 90 34.5 148.5t90 92t125 46t137.5 12.5q72 0 130 -9.5t99 -19.5q49 -12 86 -29l-47 -145q-45 12 -94 23 q-41 10 -90 17t-97 7q-174 0 -174 -125q0 -55 39 -85.5t98.5 -51t127 -39t127 -51.5t98.5 -87t39 -147q0 -68 -19.5 -128t-63.5 -104t-116 -70.5t-174 -26.5q-86 0 -155.5 11t-116.5 28q-55 16 -99 39z" />
<glyph unicode="t" horiz-adv-x="684" d="M43 887v160h135v299l189 40v-339h200v-160h-198v-586q0 -121 114 -133q27 -2 59.5 -2h59.5v-98q0 -37 -16.5 -51.5t-53.5 -16.5h-57q-158 2 -227.5 74.5t-69.5 208.5v604h-135z" />
<glyph unicode="u" horiz-adv-x="1118" d="M133 332v715h195v-707q0 -76 41 -127t114 -55q9 -1 18 -1q53 1 99 21q54 24 94 53q47 37 84 82v734h197v-979q0 -37 -16.5 -52.5t-53.5 -15.5h-127v150q-35 -45 -84 -82q-41 -31 -100 -55.5t-137 -24.5q-147 0 -235.5 92t-88.5 252z" />
<glyph unicode="v" horiz-adv-x="964" d="M16 1047h195l270 -891l271 891h196q-88 -264 -157 -476q-31 -90 -60 -177t-52.5 -156.5t-38.5 -113.5t-17 -50q-16 -41 -46 -57.5t-75 -16.5h-148z" />
<glyph unicode="w" horiz-adv-x="1421" d="M39 1047h207l170 -867l182 867h221l178 -865l191 865h196q-66 -264 -118 -476q-23 -90 -44.5 -177t-39 -156.5t-29.5 -113.5t-14 -50q-16 -41 -46 -57.5t-75 -16.5h-144l-163 817l-181 -817h-239z" />
<glyph unicode="x" horiz-adv-x="1042" d="M63 0l340 549l-301 498h215l220 -398l208 398h205l-315 -512l317 -472q9 -14 9 -26q0 -9 -4 -17q-11 -20 -39 -20h-148l-262 414l-227 -414h-218z" />
<glyph unicode="y" horiz-adv-x="993" d="M27 1047h213l260 -854l270 854h199l-445 -1237q-35 -98 -83 -157t-103 -90.5t-116.5 -40.5t-125.5 -9v161q55 0 94 8.5t69 28t52.5 51t42.5 78.5q10 27 25.5 68t26.5 72z" />
<glyph unicode="z" horiz-adv-x="1036" d="M104 0v184l611 703h-590v160h797v-177l-609 -704h627v-98q0 -37 -16.5 -52.5t-53.5 -15.5h-766z" />
<glyph unicode="{" horiz-adv-x="710" d="M111 522v140q66 0 107.5 9t65 31.5t33 60.5t9.5 95v311q0 66 6 126.5t29.5 105.5t71.5 71.5t134 26.5h121v-135h-45t-45 -2q-117 -6 -117 -125v-457q0 -33 -11 -65.5t-34.5 -58t-59.5 -41t-85 -15.5v-12q98 0 144 -56.5t46 -132.5v-454q0 -119 117 -125q27 -2 45.5 -2 h44.5v-135h-121q-86 0 -134 26.5t-71.5 71.5t-29.5 105.5t-6 125.5v314q0 59 -9.5 97t-33 60.5t-65.5 30.5t-107 8z" />
<glyph unicode="|" horiz-adv-x="387" d="M115 0v1536h157v-1473q0 -63 -65 -63h-92z" />
<glyph unicode="}" horiz-adv-x="712" d="M47 -182h45.5t44.5 2q117 6 117 125v454q0 76 46 132.5t144 56.5v12q-49 0 -84.5 15.5t-59.5 41t-35 58.5t-11 65v457q0 119 -117 125q-27 2 -45 2h-45v135h121q86 0 134 -26.5t71.5 -71.5t30 -105.5t6.5 -126.5v-311q0 -57 9 -95t32.5 -60.5t65.5 -31.5t108 -9v-140 q-66 0 -108 -8t-65.5 -30.5t-32.5 -60.5t-9 -97v-314q0 -66 -6.5 -126t-30 -105t-71.5 -71.5t-134 -26.5h-121v135z" />
<glyph unicode="~" horiz-adv-x="1177" d="M119 623q29 43 67 79q35 31 84 56.5t115 25.5q59 0 115.5 -23.5t109 -53t100.5 -53t89 -23.5q47 0 81.5 16.5t57.5 38.5q27 23 47 55l68 -77q-27 -51 -64 -89q-33 -33 -79 -59.5t-109 -26.5q-70 0 -130.5 24t-114.5 52.5t-101 52t-90 23.5t-78 -16.5t-60 -36.5 q-29 -23 -49 -53q-14 18 -24 36q-10 14 -20.5 29t-14.5 23z" />
<glyph unicode="&#xa1;" horiz-adv-x="538" d="M139 930q0 53 39 93t96 40q53 0 93.5 -40t40.5 -93q0 -57 -40 -97t-94 -40q-57 0 -96 39.5t-39 97.5zM168 -385v948q0 63 65 64h129v-1012h-194z" />
<glyph unicode="&#xa2;" horiz-adv-x="974" d="M82 537q0 242 110.5 367.5t292.5 148.5v161h160v-159q55 -6 101.5 -17.5t78.5 -23.5q37 -14 70 -31l-68 -145q-23 10 -51 18q-25 8 -57.5 16.5t-73.5 12.5v-719q41 4 77 12t62 17q31 8 56 18l61 -141q-31 -18 -70 -33q-35 -14 -80.5 -26.5t-105.5 -18.5v-125 q0 -63 -65 -64h-95v187q-92 6 -165.5 36.5t-127 94t-82 165t-28.5 249.5zM276 530q0 -150 50.5 -243.5t158.5 -116.5v711q-209 -48 -209 -351z" />
<glyph unicode="&#xa3;" horiz-adv-x="1060" d="M59 0v164q37 8 66 33q25 23 46.5 61.5t21.5 106.5v278h-134v166h134v246q0 104 35.5 176t94 118t134 68.5t155.5 26.5q70 4 133.5 -5t110.5 -22q55 -14 102 -35l-57 -155q-39 16 -86 26q-41 10 -95 17.5t-118 3.5q-72 -4 -115 -27.5t-65.5 -61.5t-28.5 -87t-6 -105v-184 h451v-166h-451v-278q0 -53 -13.5 -90t-29.5 -61t-31.5 -35t-19.5 -13h700v-100q0 -66 -69 -66h-865z" />
<glyph unicode="&#xa4;" horiz-adv-x="815" d="M76 614l45 50q16 18 31.5 33.5l19.5 19.5l2 2q-23 68 -22 158q0 92 28 159l-96 97l80 79l86 -79q72 59 168 59q90 0 162 -53l75 75l80 -79q-16 -18 -33 -35q-14 -14 -27 -29.5t-24 -26.5q16 -35 25.5 -75.5t9.5 -91.5q0 -98 -29 -168l95 -93l-80 -79q-14 12 -29 24 q-12 10 -26.5 23.5t-24.5 23.5q-37 -35 -82 -51t-92 -16q-53 0 -100.5 16t-84.5 55l-77 -77zM272 877q0 -109 38 -156t110 -47q63 0 103 47t40 156q0 186 -143 186q-147 0 -148 -186z" />
<glyph unicode="&#xa5;" horiz-adv-x="1218" d="M57 1434h232l319 -725l326 725h231l-342 -689h228v-141h-297l-52 -104v-51h349v-142h-349v-246q0 -35 -15 -48t-50 -13h-129v307h-365v142h365v51l-51 104h-314v141h246z" />
<glyph unicode="&#xa6;" horiz-adv-x="387" d="M115 0v719l157 2v-658q0 -63 -65 -63h-92zM115 850v686h157v-686h-157z" />
<glyph unicode="&#xa7;" horiz-adv-x="1052" d="M106 698q0 49 18.5 91t45.5 75t56.5 56.5t54.5 37.5q-39 27 -69 72t-30 119q0 92 32 150.5t84 92t117.5 45t133.5 9.5q55 -4 106.5 -11.5t89.5 -17.5q45 -10 86 -24l-47 -148q-41 12 -79 23q-35 10 -72 17t-66 9q-119 6 -166 -35.5t-47 -115.5q0 -37 19.5 -62.5t52.5 -45 t75 -37t85 -37.5q82 -39 145.5 -73t105.5 -71t63.5 -82t21.5 -106q0 -51 -16.5 -94t-40 -77t-51.5 -58.5t-50 -43.5q49 -41 70.5 -89t21.5 -113q0 -72 -23.5 -133.5t-70.5 -107.5t-121 -70.5t-172 -20.5q-63 2 -124.5 15t-108.5 30q-55 18 -107 41l57 147q37 -16 82 -30 q39 -12 91.5 -22.5t111.5 -14.5q98 -6 148.5 42t50.5 134q0 35 -22.5 64.5t-58.5 56t-81 49t-90 45.5q-55 27 -110.5 54.5t-99.5 64.5t-73 85t-29 115zM291 692q4 -39 25.5 -66.5t54 -50t74.5 -42t87 -39.5q31 -16 50.5 -25.5t50.5 -28.5q16 12 35.5 30.5t37 40t28.5 47.5 t11 50q0 39 -21.5 71t-57 59.5t-80.5 51t-90 44.5l-97 45q-20 -10 -40.5 -25.5t-37 -38t-25.5 -53.5t-5 -70z" />
<glyph unicode="&#xa8;" horiz-adv-x="913" d="M156 1290q0 49 30.5 81t73.5 32q47 0 78 -32t31 -81q0 -43 -31 -74.5t-78 -31.5q-43 0 -73.5 31.5t-30.5 74.5zM545 1290q0 49 30.5 81t73.5 32q47 0 78 -32t31 -81q0 -43 -31 -74.5t-78 -31.5q-43 0 -73.5 31.5t-30.5 74.5z" />
<glyph unicode="&#xa9;" horiz-adv-x="1638" d="M94 717q0 154 57.5 287t157 231t231.5 154.5t281 56.5q147 0 279.5 -56.5t232 -154.5t156.5 -231t57 -287t-57 -288t-156.5 -232.5t-231.5 -154.5t-280 -56q-150 0 -281.5 56t-231 154.5t-157 232.5t-57.5 288zM242 717q0 -129 45 -239.5t122.5 -193.5t184 -130.5 t227.5 -47.5q119 0 224.5 47.5t184.5 130.5t124 193.5t45 239.5t-45 239.5t-124 192.5t-184.5 129t-224.5 47q-121 0 -227.5 -47t-184 -129t-122.5 -192.5t-45 -239.5zM477 725q0 211 103.5 312.5t269.5 101.5q45 0 85 -8.5t71 -18.5q37 -10 65 -25l-47 -114q-27 12 -55 20 q-25 8 -57.5 12.5t-67.5 2.5q-117 -8 -175.5 -74t-58.5 -207q0 -160 58.5 -225.5t181.5 -65.5q37 0 69.5 5t55.5 12q27 8 51 18l45 -115q-27 -16 -63 -28q-31 -10 -73 -19.5t-93 -9.5q-80 0 -146.5 19.5t-115 67.5t-76 130t-27.5 209z" />
<glyph unicode="&#xaa;" horiz-adv-x="614" d="M154 1176q0 59 34.5 87.5t94.5 34.5q29 4 46 3t31 -1v33q0 51 -63 51q-20 0 -37.5 -3t-32.5 -7q-16 -4 -30 -8l-13 61q14 4 35 11q31 8 86 12q57 2 98 -24.5t41 -98.5v-254q-12 -6 -32 -10q-16 -4 -41 -7t-56 -3q-78 -2 -119.5 31.5t-41.5 91.5zM240 1180 q2 -35 25.5 -49.5t58.5 -14.5q16 0 28 4q6 2 8 6v115q-10 2 -18 2h-18.5t-22.5 -2q-61 -12 -61 -61z" />
<glyph unicode="&#xab;" horiz-adv-x="1110" d="M125 535l342 524l135 -78l-289 -446l289 -441l-139 -82zM543 535l342 524l135 -78l-289 -446l289 -441l-139 -82z" />
<glyph unicode="&#xac;" horiz-adv-x="825" d="M27 547v149h768v-362h-152v213h-616z" />
<glyph unicode="&#xad;" horiz-adv-x="690" d="M70 473v141h551v-141h-551z" />
<glyph unicode="&#xae;" horiz-adv-x="1638" d="M94 717q0 154 57.5 287t157 231t231.5 154.5t281 56.5q147 0 279.5 -56.5t232 -154.5t156.5 -231t57 -287t-57 -288t-156.5 -232.5t-231.5 -154.5t-280 -56q-150 0 -281.5 56t-231 154.5t-157 232.5t-57.5 288zM242 717q0 -129 45 -239.5t122.5 -193.5t184 -130.5 t227.5 -47.5q119 0 224.5 47.5t184.5 130.5t124 193.5t45 239.5t-45 239.5t-124 192.5t-184.5 129t-224.5 47q-121 0 -227.5 -47t-184 -129t-122.5 -192.5t-45 -239.5zM573 322v782q41 2 84 6q37 2 80 4t84 2q135 0 204 -56t69 -181q0 -90 -45 -153.5t-109 -86.5 q6 -12 23.5 -40t41 -65.5t50 -81.5t55.5 -90q10 -16 2 -28t-29 -12h-112q-43 74 -78 135q-29 51 -54.5 95t-27.5 48q-8 18 -29 18h-25h-12.5t-13.5 1.5t-29 1.5v-263q0 -37 -38 -36h-91zM702 729q8 -2 21 -2h61q80 0 126 29.5t46 115.5q0 66 -35.5 100t-113.5 34 q-27 0 -46.5 -1t-31.5 -1q-16 -2 -27 -3v-272z" />
<glyph unicode="&#xaf;" horiz-adv-x="661" d="M98 1223v125h457v-125h-457z" />
<glyph unicode="&#xb0;" horiz-adv-x="708" d="M104 1190q0 51 20.5 95t55.5 77t82 52.5t100 19.5t100.5 -19.5t83.5 -52.5t56.5 -77t20.5 -95t-20.5 -95t-56.5 -77t-83 -52.5t-101 -19.5q-53 0 -100 19.5t-82 52.5t-55.5 77t-20.5 95zM256 1188q0 -55 31.5 -86t79.5 -31q47 0 78.5 31t31.5 86q0 53 -27.5 87t-82.5 34 q-59 0 -85 -35t-26 -86z" />
<glyph unicode="&#xb1;" horiz-adv-x="1030" d="M39 0v141h952v-141h-952zM39 561v137h397v349h158v-349h397v-137h-397v-293q0 -63 -66 -63h-92v356h-397z" />
<glyph unicode="&#xb2;" horiz-adv-x="512" d="M111 1104q0 45 28.5 75.5t64.5 54t64.5 45t28.5 50.5q0 23 -16.5 38t-55.5 15q-16 0 -31.5 -3t-27.5 -7q-14 -6 -29 -10l-14 63q16 4 37 11q16 4 37.5 7t44.5 3q59 0 97 -27.5t38 -83.5q-4 -53 -33 -83.5t-61.5 -52t-60 -40t-27.5 -45.5v-4h178v-47q0 -16 -19 -16h-241 q0 4 -1 22t-1 35z" />
<glyph unicode="&#xb3;" horiz-adv-x="512" d="M135 1065l17 61l32 -8q14 -4 29.5 -6t30.5 -2q72 0 71 66q0 45 -57 45h-53v65h55q18 0 35.5 8.5t17.5 36.5q0 23 -15 38t-46 15q-16 0 -32.5 -2t-31.5 -6l-32 -8l-17 57q20 4 43 11q18 4 40 8t40 4q59 0 91 -25.5t36 -68.5q2 -27 -6 -44.5t-17.5 -28.5t-17.5 -17l-8 -7 q14 -6 27 -18q10 -10 19 -28.5t9 -47.5q0 -63 -40 -91t-99 -28q-23 0 -44.5 3.5t-37.5 7.5q-20 4 -39 10z" />
<glyph unicode="&#xb4;" horiz-adv-x="675" d="M143 1255l324 195l65 -127l-339 -164z" />
<glyph unicode="&#xb5;" horiz-adv-x="1118" d="M133 -428v1475h195v-707q0 -76 41 -127t114 -55q63 -4 116.5 19.5t94.5 53.5q47 37 84 82v734h197v-979q0 -37 -16.5 -52.5t-53.5 -15.5h-127v150q-29 -45 -71 -82q-37 -31 -93.5 -55.5t-134.5 -24.5q-80 0 -151 49v-397q0 -37 -16.5 -52.5t-53.5 -15.5h-125z" />
<glyph unicode="&#xb6;" horiz-adv-x="1204" d="M106 1079q0 96 29 164t80 110t119.5 61.5t146.5 19.5q55 0 103.5 -1t85.5 -3q41 -2 78 -3v-1427h-93q-37 0 -53 15.5t-16 52.5v628q-16 -2 -36 -3t-50 -1q-78 0 -148.5 19.5t-125 65.5t-87.5 120t-33 182zM905 0v1434h160v-1371q0 -35 -28.5 -49t-63.5 -14h-68z" />
<glyph unicode="&#xb7;" horiz-adv-x="487" d="M141 561q0 45 30 75t71 30q45 0 73.5 -30t28.5 -75q0 -41 -28.5 -70.5t-73.5 -29.5q-41 0 -71 29.5t-30 70.5z" />
<glyph unicode="&#xb8;" horiz-adv-x="512" d="M96 -358l43 106q10 -4 23 -8q10 -4 23.5 -6t29.5 -2q70 0 72 53q2 29 -18.5 42t-71.5 13h-35q0 4 6 32t12 62q8 39 17 89l112 -17q-2 -18 -6 -35q-6 -31 -10 -51q57 -10 90 -41t33 -96q0 -31 -12.5 -60.5t-35 -54t-56 -40t-79.5 -13.5q-27 0 -51 5t-43 9q-23 6 -43 13z " />
<glyph unicode="&#xb9;" horiz-adv-x="512" d="M135 1047v63h96v258l-84 -14l-10 65l168 27v-336h86v-47q0 -16 -18 -16h-238z" />
<glyph unicode="&#xba;" horiz-adv-x="616" d="M150 1255q0 98 48 143.5t111 45.5t110.5 -45t47.5 -144q0 -55 -14.5 -93t-37 -62.5t-50 -34.5t-56.5 -10q-66 0 -112.5 45t-46.5 155zM227 1255q0 -68 20.5 -97.5t61.5 -29.5q37 0 59.5 30t22.5 97q0 117 -82 117t-82 -117z" />
<glyph unicode="&#xbb;" horiz-adv-x="1112" d="M125 94l289 441l-289 446l135 78l342 -524l-338 -523zM543 94l288 441l-288 446l135 78l342 -524l-338 -523z" />
<glyph unicode="&#xbc;" horiz-adv-x="1638" d="M150 666v118h159v514l-143 -22l-12 119l311 45l2 -656h151v-86q0 -33 -36 -32h-432zM397 0l738 1434h155l-706 -1371q-33 -63 -97 -63h-90zM870 190v99l365 479h172v-467h106v-111h-106v-157q0 -33 -35 -33h-127v190h-375zM1049 301h196v274z" />
<glyph unicode="&#xbd;" horiz-adv-x="1638" d="M150 666v118h159v514l-143 -22l-12 119l311 45l2 -656h151v-86q0 -33 -36 -32h-432zM397 0l738 1434h155l-706 -1371q-33 -63 -97 -63h-90zM1014 0v72q0 68 25.5 122t64.5 98t83 80t83 66.5t64.5 59t25.5 57.5q0 41 -24.5 66.5t-90.5 25.5q-31 0 -63.5 -7t-59.5 -15 q-31 -10 -59 -23l-31 133q37 12 78 23q35 10 79 17t89 7q123 0 193.5 -54t66.5 -163q0 -63 -55.5 -120.5t-122 -110.5t-121.5 -104.5t-55 -104.5h348v-90q0 -35 -35 -35h-483z" />
<glyph unicode="&#xbe;" horiz-adv-x="1638" d="M190 692l29 137q31 -8 62 -14q27 -6 57.5 -10t56.5 -4q150 0 150 106q0 31 -12.5 51.5t-32 31.5t-43 16.5t-43.5 5.5h-97v114h103q31 0 68.5 26t37.5 73q0 35 -27.5 59.5t-80.5 24.5q-29 0 -59.5 -6.5t-57.5 -12.5q-31 -8 -61 -18l-35 131q39 12 78 20q35 8 74.5 15.5 t74.5 7.5q117 0 183.5 -49t70.5 -135q4 -51 -10 -87t-33.5 -58.5t-37 -33t-19.5 -10.5q2 0 19.5 -9t39 -29.5t38.5 -55.5t17 -88q0 -63 -21.5 -107.5t-60 -72t-90 -41t-108.5 -13.5q-41 0 -82 6.5t-74 12.5q-39 8 -74 16zM397 0l738 1434h155l-706 -1371q-33 -63 -97 -63 h-90zM870 190v99l365 479h172v-467h106v-111h-106v-157q0 -33 -35 -33h-127v190h-375zM1049 301h196v274z" />
<glyph unicode="&#xbf;" horiz-adv-x="1050" d="M92 2q6 76 39 133.5t78 100.5t97 76.5t95 64.5t72 62.5t29 72.5v115h194v-119q0 -66 -28.5 -113t-72.5 -86t-95 -70.5t-96.5 -66.5t-78 -76t-38.5 -96q-25 -233 243 -233q55 0 109.5 9t99.5 21q51 12 99 31l32 -143q-53 -25 -114 -43q-53 -16 -119 -28.5t-133 -12.5 q-102 0 -181 29.5t-133.5 81.5t-79 126t-18.5 164zM467 930q0 53 39 93t96 40q53 0 93 -40t40 -93q0 -57 -40 -97t-93 -40q-57 0 -96 39.5t-39 97.5z" />
<glyph unicode="&#xc0;" horiz-adv-x="1282" d="M39 0l510 1434h213q129 -383 231 -684q43 -129 85 -251t75 -220q37 -114 74 -216q16 -63 -58 -63h-155l-111 360h-522l-123 -360h-219zM426 524h430l-205 678zM446 1710l66 127l324 -195l-50 -96z" />
<glyph unicode="&#xc1;" horiz-adv-x="1282" d="M39 0l510 1434h213q129 -383 231 -684q43 -129 85 -251t75 -220q37 -114 74 -216q16 -63 -58 -63h-155l-111 360h-522l-123 -360h-219zM426 524h430l-205 678zM446 1642l324 195l66 -127l-340 -164z" />
<glyph unicode="&#xc2;" horiz-adv-x="1282" d="M39 0l510 1434h213q129 -383 231 -684q43 -129 85 -251t75 -220q37 -114 74 -216q16 -63 -58 -63h-155l-111 360h-522l-123 -360h-219zM352 1661l289 176l289 -176l-45 -96l-244 114l-244 -114zM426 524h430l-205 678z" />
<glyph unicode="&#xc3;" horiz-adv-x="1282" d="M39 0l510 1434h213q129 -383 231 -684q43 -129 85 -251t75 -220q37 -114 74 -216q16 -63 -58 -63h-155l-111 360h-522l-123 -360h-219zM381 1665q23 31 47 53q23 20 50.5 37t62.5 17q31 0 58.5 -12.5t52 -27t46 -26.5t43.5 -12q23 0 42.5 7t33.5 17q16 10 29 27l53 -82 q-23 -27 -47 -49q-23 -18 -50.5 -33.5t-60.5 -15.5q-37 0 -65.5 12t-53 27.5t-47 28t-45.5 12.5t-40 -10.5t-31 -20.5q-16 -14 -29 -31zM426 524h430l-205 678z" />
<glyph unicode="&#xc4;" horiz-adv-x="1282" d="M39 0l510 1434h213q129 -383 231 -684q43 -129 85 -251t75 -220q37 -114 74 -216q16 -63 -58 -63h-155l-111 360h-522l-123 -360h-219zM340 1677q0 49 30.5 81t73.5 32q47 0 78 -32t31 -81q0 -43 -31 -74.5t-78 -31.5q-43 0 -73.5 31.5t-30.5 74.5zM426 524h430l-205 678 zM729 1677q0 49 31 81t74 32q47 0 77.5 -32t30.5 -81q0 -43 -30.5 -74.5t-77.5 -31.5q-43 0 -74 31.5t-31 74.5z" />
<glyph unicode="&#xc5;" horiz-adv-x="1282" d="M39 0l510 1434h213q129 -383 231 -684q43 -129 85 -251t75 -220q37 -114 74 -216q16 -63 -58 -63h-155l-111 360h-522l-123 -360h-219zM426 524h430l-205 678zM522 1667q0 57 40 97t97 40t97.5 -40t40.5 -97t-40 -97t-98 -40q-57 0 -97 40t-40 97zM604 1667 q0 -31 16.5 -46t41.5 -15t42 15t17 46q0 27 -15.5 44.5t-43.5 17.5q-31 0 -44.5 -17.5t-13.5 -44.5z" />
<glyph unicode="&#xc6;" horiz-adv-x="1839" d="M-39 0l897 1434h895v-162h-663v-443h614v-163h-614v-492h663v-108q0 -66 -70 -66h-788v360h-465l-221 -360h-248zM518 524h377v625z" />
<glyph unicode="&#xc7;" horiz-adv-x="1157" d="M92 735q0 186 46 321.5t128 222.5t194.5 128t244.5 41q70 0 131 -8t108 -19q53 -12 100 -26l-45 -160q-47 14 -100 25q-45 10 -99.5 17t-105.5 3q-88 -6 -159.5 -40t-123 -101.5t-79 -170t-27.5 -241.5q0 -156 20.5 -260.5t66.5 -167.5t122 -93t186 -36q57 -4 112.5 3 t102.5 17q53 10 103 27l41 -164q-51 -18 -111 -33q-51 -12 -118.5 -22t-143.5 -10q-16 0 -30.5 1t-28.5 1q-4 -14 -7.5 -35t-5.5 -35q57 -10 90 -41t33 -96q0 -31 -12 -60.5t-34.5 -54t-56.5 -40t-79 -13.5q-27 0 -51.5 5t-42.5 9q-23 6 -43 13l43 106q10 -4 22 -8 q10 -4 23.5 -6t30.5 -2q70 0 71 53q2 29 -18.5 42t-71.5 13h-35l31 164q-92 20 -170 69.5t-133 136.5t-87 216t-32 309z" />
<glyph unicode="&#xc8;" horiz-adv-x="1107" d="M164 0v1434h858v-162h-664v-443h615v-163h-615v-492h664v-108q0 -66 -70 -66h-788zM389 1710l66 127l323 -195l-49 -96z" />
<glyph unicode="&#xc9;" horiz-adv-x="1107" d="M164 0v1434h858v-162h-664v-443h615v-163h-615v-492h664v-108q0 -66 -70 -66h-788zM358 1642l324 195l66 -127l-340 -164z" />
<glyph unicode="&#xca;" horiz-adv-x="1107" d="M164 0v1434h858v-162h-664v-443h615v-163h-615v-492h664v-108q0 -66 -70 -66h-788zM305 1661l289 176l289 -176l-45 -96l-244 114l-244 -114z" />
<glyph unicode="&#xcb;" horiz-adv-x="1107" d="M164 0v1434h858v-162h-664v-443h615v-163h-615v-492h664v-108q0 -66 -70 -66h-788zM287 1677q0 49 30.5 81t73.5 32q47 0 78 -32t31 -81q0 -43 -31 -74.5t-78 -31.5q-43 0 -73.5 31.5t-30.5 74.5zM676 1677q0 49 30.5 81t73.5 32q47 0 78 -32t31 -81q0 -43 -31 -74.5 t-78 -31.5q-43 0 -73.5 31.5t-30.5 74.5z" />
<glyph unicode="&#xcc;" horiz-adv-x="522" d="M68 1710l65 127l324 -195l-49 -96zM164 0v1434h194v-1371q0 -63 -65 -63h-129z" />
<glyph unicode="&#xcd;" horiz-adv-x="522" d="M68 1642l323 195l66 -127l-340 -164zM164 0v1434h194v-1371q0 -63 -65 -63h-129z" />
<glyph unicode="&#xce;" horiz-adv-x="522" d="M-27 1661l289 176l289 -176l-45 -96l-244 114l-244 -114zM164 0v1434h194v-1371q0 -63 -65 -63h-129z" />
<glyph unicode="&#xcf;" horiz-adv-x="522" d="M-39 1677q0 49 31 81t74 32q47 0 77.5 -32t30.5 -81q0 -43 -30.5 -74.5t-77.5 -31.5q-43 0 -74 31.5t-31 74.5zM164 0v1434h194v-1371q0 -63 -65 -63h-129zM350 1677q0 49 31 81t74 32q47 0 77.5 -32t30.5 -81q0 -43 -30.5 -74.5t-77.5 -31.5q-43 0 -74 31.5t-31 74.5z " />
<glyph unicode="&#xd0;" horiz-adv-x="1292" d="M25 670v129h139v626q51 4 119 11q57 4 134 8t173 4q137 0 248.5 -39t191.5 -126t124 -225t44 -335t-46 -336t-129 -228t-195.5 -130t-247.5 -41q-100 0 -177 3t-131 7q-63 4 -108 10v662h-139zM358 168q57 -2 117.5 -4t130.5 -2q78 0 148.5 24.5t125 88t87 174 t32.5 284.5t-32.5 281.5t-86 167t-120 80t-133.5 20.5q-76 0 -139.5 -1t-129.5 -5v-477h312v-129h-312v-502z" />
<glyph unicode="&#xd1;" horiz-adv-x="1353" d="M164 0v1434h262l584 -1164l-23 1164h203v-1371q0 -35 -14.5 -49t-49.5 -14h-182l-592 1176l10 -1176h-198zM418 1665q23 31 47 53q23 20 50.5 37t62.5 17q31 0 58.5 -12.5t52 -27t46 -26.5t43.5 -12q23 0 42.5 7t33.5 17q16 10 29 27l53 -82q-23 -27 -47 -49 q-23 -18 -50.5 -33.5t-60.5 -15.5q-37 0 -65.5 12t-53 27.5t-47 28t-45.5 12.5t-40 -10.5t-31 -20.5q-16 -14 -29 -31z" />
<glyph unicode="&#xd2;" horiz-adv-x="1333" d="M92 739q0 156 36 286t108.5 224t180.5 146.5t251 52.5q150 0 258 -53.5t179 -149.5t104.5 -232t33.5 -304q0 -166 -37 -298t-110.5 -226.5t-183 -144.5t-255.5 -50q-150 0 -256 51t-174.5 147.5t-101.5 235.5t-33 315zM301 729q0 -561 354 -561q193 0 285 136t92 427 q0 289 -95 419t-255 130q-86 0 -156.5 -31.5t-120 -98.5t-77 -171.5t-27.5 -249.5zM471 1710l66 127l323 -195l-49 -96z" />
<glyph unicode="&#xd3;" horiz-adv-x="1333" d="M92 739q0 156 36 286t108.5 224t180.5 146.5t251 52.5q150 0 258 -53.5t179 -149.5t104.5 -232t33.5 -304q0 -166 -37 -298t-110.5 -226.5t-183 -144.5t-255.5 -50q-150 0 -256 51t-174.5 147.5t-101.5 235.5t-33 315zM301 729q0 -561 354 -561q193 0 285 136t92 427 q0 289 -95 419t-255 130q-86 0 -156.5 -31.5t-120 -98.5t-77 -171.5t-27.5 -249.5zM471 1642l324 195l65 -127l-340 -164z" />
<glyph unicode="&#xd4;" horiz-adv-x="1333" d="M92 739q0 156 36 286t108.5 224t180.5 146.5t251 52.5q150 0 258 -53.5t179 -149.5t104.5 -232t33.5 -304q0 -166 -37 -298t-110.5 -226.5t-183 -144.5t-255.5 -50q-150 0 -256 51t-174.5 147.5t-101.5 235.5t-33 315zM301 729q0 -561 354 -561q193 0 285 136t92 427 q0 289 -95 419t-255 130q-86 0 -156.5 -31.5t-120 -98.5t-77 -171.5t-27.5 -249.5zM377 1661l289 176l288 -176l-45 -96l-243 114l-244 -114z" />
<glyph unicode="&#xd5;" horiz-adv-x="1333" d="M92 739q0 156 36 286t108.5 224t180.5 146.5t251 52.5q150 0 258 -53.5t179 -149.5t104.5 -232t33.5 -304q0 -166 -37 -298t-110.5 -226.5t-183 -144.5t-255.5 -50q-150 0 -256 51t-174.5 147.5t-101.5 235.5t-33 315zM301 729q0 -561 354 -561q193 0 285 136t92 427 q0 289 -95 419t-255 130q-86 0 -156.5 -31.5t-120 -98.5t-77 -171.5t-27.5 -249.5zM408 1665q23 31 47 53q23 20 50 37t62 17q31 0 58.5 -12.5t52 -27t46 -26.5t44.5 -12t42 7t34 17q16 10 28 27l54 -82q-23 -27 -47 -49q-23 -18 -50.5 -33.5t-60.5 -15.5q-37 0 -65.5 12 t-53 27.5t-47 28t-45.5 12.5t-40 -10.5t-32 -20.5q-16 -14 -28 -31z" />
<glyph unicode="&#xd6;" horiz-adv-x="1333" d="M92 739q0 156 36 286t108.5 224t180.5 146.5t251 52.5q150 0 258 -53.5t179 -149.5t104.5 -232t33.5 -304q0 -166 -37 -298t-110.5 -226.5t-183 -144.5t-255.5 -50q-150 0 -256 51t-174.5 147.5t-101.5 235.5t-33 315zM301 729q0 -561 354 -561q193 0 285 136t92 427 q0 289 -95 419t-255 130q-86 0 -156.5 -31.5t-120 -98.5t-77 -171.5t-27.5 -249.5zM365 1677q0 49 30.5 81t73.5 32q47 0 78 -32t31 -81q0 -43 -31 -74.5t-78 -31.5q-43 0 -73.5 31.5t-30.5 74.5zM754 1677q0 49 30.5 81t73.5 32q47 0 78 -32t31 -81q0 -43 -31 -74.5 t-78 -31.5q-43 0 -73.5 31.5t-30.5 74.5z" />
<glyph unicode="&#xd7;" horiz-adv-x="1069" d="M76 899l98 98l369 -372l366 364l99 -96l-369 -367l358 -358l-96 -98l-358 360l-365 -362l-98 98l364 362z" />
<glyph unicode="&#xd8;" horiz-adv-x="1333" d="M92 739q0 156 36 286t108.5 224t180 146.5t251.5 52.5q168 0 288 -70l35 56h187l-97 -160q82 -98 122 -241.5t40 -323.5q0 -166 -37 -298t-110.5 -226.5t-183 -144.5t-255.5 -50q-96 0 -172.5 20.5t-138.5 61.5l-4 -9q-37 -63 -102 -63h-121l110 182q-72 98 -104.5 237.5 t-32.5 319.5zM301 729q0 -217 51 -346l512 842q-78 55 -182 55q-86 0 -156.5 -31.5t-120 -98.5t-77 -171.5t-27.5 -249.5zM449 238q78 -70 206 -70q193 0 285 136t92 427q0 117 -16.5 206t-46.5 155z" />
<glyph unicode="&#xd9;" horiz-adv-x="1310" d="M154 530v904h194v-938q0 -70 20.5 -130.5t59.5 -104.5t97.5 -68.5t136.5 -24.5q76 0 132 25.5t93 68.5t55.5 99.5t18.5 117.5v955h196v-914q0 -102 -24.5 -198.5t-84 -170t-157.5 -118.5t-244 -45q-145 0 -240.5 44t-151.5 119.5t-78.5 173t-22.5 205.5zM461 1710l65 127 l324 -195l-49 -96z" />
<glyph unicode="&#xda;" horiz-adv-x="1310" d="M154 530v904h194v-938q0 -70 20.5 -130.5t59.5 -104.5t97.5 -68.5t136.5 -24.5q76 0 132 25.5t93 68.5t55.5 99.5t18.5 117.5v955h196v-914q0 -102 -24.5 -198.5t-84 -170t-157.5 -118.5t-244 -45q-145 0 -240.5 44t-151.5 119.5t-78.5 173t-22.5 205.5zM461 1642 l323 195l66 -127l-340 -164z" />
<glyph unicode="&#xdb;" horiz-adv-x="1310" d="M154 530v904h194v-938q0 -70 20.5 -130.5t59.5 -104.5t97.5 -68.5t136.5 -24.5q76 0 132 25.5t93 68.5t55.5 99.5t18.5 117.5v955h196v-914q0 -102 -24.5 -198.5t-84 -170t-157.5 -118.5t-244 -45q-145 0 -240.5 44t-151.5 119.5t-78.5 173t-22.5 205.5zM367 1661 l288 176l289 -176l-45 -96l-244 114l-243 -114z" />
<glyph unicode="&#xdc;" horiz-adv-x="1310" d="M154 530v904h194v-938q0 -70 20.5 -130.5t59.5 -104.5t97.5 -68.5t136.5 -24.5q76 0 132 25.5t93 68.5t55.5 99.5t18.5 117.5v955h196v-914q0 -102 -24.5 -198.5t-84 -170t-157.5 -118.5t-244 -45q-145 0 -240.5 44t-151.5 119.5t-78.5 173t-22.5 205.5zM354 1677 q0 49 31 81t74 32q47 0 77.5 -32t30.5 -81q0 -43 -30.5 -74.5t-77.5 -31.5q-43 0 -74 31.5t-31 74.5zM743 1677q0 49 31 81t74 32q47 0 77.5 -32t30.5 -81q0 -43 -30.5 -74.5t-77.5 -31.5q-43 0 -74 31.5t-31 74.5z" />
<glyph unicode="&#xdd;" horiz-adv-x="1218" d="M57 1434h232l319 -648l326 648h231l-463 -856v-517q0 -35 -15 -48t-50 -13h-129v578zM414 1642l323 195l66 -127l-340 -164z" />
<glyph unicode="&#xde;" horiz-adv-x="1116" d="M164 0v1434h194v-232q76 6 168 6q248 0 373 -107.5t125 -348.5q0 -135 -43 -226.5t-114.5 -149t-166 -82t-196.5 -24.5q-41 0 -68.5 1t-77.5 5v-208q0 -37 -16 -52.5t-53 -15.5h-125zM358 434q18 -2 41 -4q20 -2 50 -2h67q143 0 218 76t75 241q0 143 -64.5 218t-205.5 75 q-47 0 -81 -1t-57 -3q-25 -2 -43 -4v-596z" />
<glyph unicode="&#xdf;" horiz-adv-x="1253" d="M-10 870v131h172v99q0 86 30.5 151.5t87 109.5t135.5 65.5t173 21.5q72 0 141.5 -18.5t122.5 -58.5t82 -100.5t20 -146.5q-8 -82 -48 -126t-84 -72.5t-79.5 -53t-35.5 -65.5q0 -33 35.5 -59.5t136.5 -55.5q55 -14 108 -41.5t95 -66.5t70 -90.5t32 -112.5 q4 -74 -17.5 -144.5t-68.5 -126t-121 -89t-172 -33.5q-70 0 -129.5 11t-106.5 26q-53 16 -100 36l53 164q39 -18 84 -30q37 -12 85 -21.5t97 -9.5q98 0 144.5 52t46.5 128q2 84 -35 124t-127 69q-53 18 -106.5 35.5t-96.5 46t-69.5 72.5t-26.5 112q0 57 18.5 94t45 62.5 t58.5 44t58.5 38t45 43t18.5 62.5q0 70 -39 101.5t-143 31.5q-72 0 -116 -15.5t-68.5 -45t-33 -70.5t-8.5 -92v-989q0 -37 -16 -52.5t-53 -15.5h-123v870h-172z" />
<glyph unicode="&#xe0;" horiz-adv-x="1040" d="M70 322q0 158 89 235.5t232 89.5q41 2 89 4t94.5 4t83 2h55.5v78q0 84 -37 123t-144 39q-72 0 -136 -8t-111 -19q-57 -12 -105 -26l-28 141q55 18 118 35q53 14 122 25.5t143 13.5q80 2 147.5 -14.5t117.5 -55.5t78.5 -103.5t28.5 -158.5v-684q-43 -14 -100 -25 q-49 -10 -120 -19t-163 -11q-221 -4 -337.5 87t-116.5 247zM268 334q0 -100 60.5 -139t158.5 -39q37 0 77 1t73 5q37 4 76 8v344q-55 -4 -107 -6q-43 -4 -88 -5t-67 -5q-106 -12 -144.5 -52t-38.5 -112zM326 1323l65 127l324 -195l-49 -96z" />
<glyph unicode="&#xe1;" horiz-adv-x="1040" d="M70 322q0 158 89 235.5t232 89.5q41 2 89 4t94.5 4t83 2h55.5v78q0 84 -37 123t-144 39q-72 0 -136 -8t-111 -19q-57 -12 -105 -26l-28 141q55 18 118 35q53 14 122 25.5t143 13.5q80 2 147.5 -14.5t117.5 -55.5t78.5 -103.5t28.5 -158.5v-684q-43 -14 -100 -25 q-49 -10 -120 -19t-163 -11q-221 -4 -337.5 87t-116.5 247zM268 334q0 -100 60.5 -139t158.5 -39q37 0 77 1t73 5q37 4 76 8v344q-55 -4 -107 -6q-43 -4 -88 -5t-67 -5q-106 -12 -144.5 -52t-38.5 -112zM326 1255l323 195l66 -127l-340 -164z" />
<glyph unicode="&#xe2;" horiz-adv-x="1040" d="M70 322q0 158 89 235.5t232 89.5q41 2 89 4t94.5 4t83 2h55.5v78q0 84 -37 123t-144 39q-72 0 -136 -8t-111 -19q-57 -12 -105 -26l-28 141q55 18 118 35q53 14 122 25.5t143 13.5q80 2 147.5 -14.5t117.5 -55.5t78.5 -103.5t28.5 -158.5v-684q-43 -14 -100 -25 q-49 -10 -120 -19t-163 -11q-221 -4 -337.5 87t-116.5 247zM231 1274l289 176l289 -176l-45 -96l-244 114l-244 -114zM268 334q0 -100 60.5 -139t158.5 -39q37 0 77 1t73 5q37 4 76 8v344q-55 -4 -107 -6q-43 -4 -88 -5t-67 -5q-106 -12 -144.5 -52t-38.5 -112z" />
<glyph unicode="&#xe3;" horiz-adv-x="1040" d="M70 322q0 158 89 235.5t232 89.5q41 2 89 4t94.5 4t83 2h55.5v78q0 84 -37 123t-144 39q-72 0 -136 -8t-111 -19q-57 -12 -105 -26l-28 141q55 18 118 35q53 14 122 25.5t143 13.5q80 2 147.5 -14.5t117.5 -55.5t78.5 -103.5t28.5 -158.5v-684q-43 -14 -100 -25 q-49 -10 -120 -19t-163 -11q-221 -4 -337.5 87t-116.5 247zM260 1278q23 31 47 53q23 20 50.5 36.5t62.5 16.5q31 0 58.5 -12t52 -26.5t46 -26.5t44.5 -12t42 7t33 17q16 10 29 27l53 -82q-23 -27 -47 -49q-23 -18 -50.5 -33.5t-59.5 -15.5q-37 0 -66 12t-53.5 27.5 t-47 27.5t-44.5 12q-23 0 -40.5 -10t-31.5 -20q-16 -14 -29 -31zM268 334q0 -100 60.5 -139t158.5 -39q37 0 77 1t73 5q37 4 76 8v344q-55 -4 -107 -6q-43 -4 -88 -5t-67 -5q-106 -12 -144.5 -52t-38.5 -112z" />
<glyph unicode="&#xe4;" horiz-adv-x="1040" d="M70 322q0 158 89 235.5t232 89.5q41 2 89 4t94.5 4t83 2h55.5v78q0 84 -37 123t-144 39q-72 0 -136 -8t-111 -19q-57 -12 -105 -26l-28 141q55 18 118 35q53 14 122 25.5t143 13.5q80 2 147.5 -14.5t117.5 -55.5t78.5 -103.5t28.5 -158.5v-684q-43 -14 -100 -25 q-49 -10 -120 -19t-163 -11q-221 -4 -337.5 87t-116.5 247zM219 1290q0 49 31 81t74 32q47 0 77.5 -32t30.5 -81q0 -43 -30.5 -74.5t-77.5 -31.5q-43 0 -74 31.5t-31 74.5zM268 334q0 -100 60.5 -139t158.5 -39q37 0 77 1t73 5q37 4 76 8v344q-55 -4 -107 -6q-43 -4 -88 -5 t-67 -5q-106 -12 -144.5 -52t-38.5 -112zM608 1290q0 49 31 81t74 32q47 0 77.5 -32t30.5 -81q0 -43 -30.5 -74.5t-77.5 -31.5q-43 0 -74 31.5t-31 74.5z" />
<glyph unicode="&#xe5;" horiz-adv-x="1040" d="M70 322q0 158 89 235.5t232 89.5q41 2 89 4t94.5 4t83 2h55.5v78q0 84 -37 123t-144 39q-72 0 -136 -8t-111 -19q-57 -12 -105 -26l-28 141q55 18 118 35q53 14 122 25.5t143 13.5q80 2 147.5 -14.5t117.5 -55.5t78.5 -103.5t28.5 -158.5v-684q-43 -14 -100 -25 q-49 -10 -120 -19t-163 -11q-221 -4 -337.5 87t-116.5 247zM268 334q0 -100 60.5 -139t158.5 -39q37 0 77 1t73 5q37 4 76 8v344q-55 -4 -107 -6q-43 -4 -88 -5t-67 -5q-106 -12 -144.5 -52t-38.5 -112zM383 1280q0 57 40 97t97 40t97 -40t40 -97t-39.5 -97t-97.5 -40 q-57 0 -97 40t-40 97zM465 1280q0 -31 16.5 -46t40.5 -15q25 0 42.5 15t17.5 46q0 27 -15.5 44t-44.5 17q-31 0 -44 -17t-13 -44z" />
<glyph unicode="&#xe6;" horiz-adv-x="1693" d="M70 322q0 158 89 235.5t232 89.5q41 2 89 4t94.5 4t83 2h55.5v78q0 84 -37 123t-144 39q-72 0 -136 -8t-111 -19q-57 -12 -105 -26l-28 141q55 20 118 37q53 14 122 25.5t143 11.5q111 0 188.5 -32t122.5 -97q66 66 151.5 97.5t184.5 31.5q96 0 175 -25.5t136 -85 t88 -158t31 -241.5v-42t-2 -34h-695q0 -90 24 -150.5t68 -97.5t104 -53t134 -16q59 0 115.5 11t97.5 26q49 16 90 38l66 -141q-47 -29 -109 -51q-53 -20 -130 -35.5t-175 -15.5q-199 0 -317 92q-18 -10 -50 -24.5t-77 -29t-103.5 -25.5t-128.5 -13q-221 -4 -337.5 87 t-116.5 247zM268 334q0 -100 60.5 -139t158.5 -39q80 0 160 21.5t125 37.5q-59 121 -61 299q-4 0 -37 -1t-75 -4l-84 -6t-64 -5q-106 -12 -144.5 -52t-38.5 -112zM918 614h501q-2 78 -26 140q-10 27 -27.5 51t-42.5 44.5t-57.5 33t-77.5 12.5q-139 0 -202.5 -70.5 t-67.5 -210.5z" />
<glyph unicode="&#xe7;" horiz-adv-x="972" d="M82 537q0 135 36 233t101.5 162.5t156.5 95.5t202 31q72 0 130 -12.5t99 -26.5q49 -16 88 -37l-68 -145q-39 18 -86 30q-41 10 -94 16.5t-119 2.5q-252 -23 -252 -357q0 -166 61.5 -262t194.5 -104q63 -4 120 3t98 17q49 10 90 29l61 -141q-41 -25 -94 -43 q-45 -16 -108.5 -28.5t-143.5 -12.5h-20l-13 -68q57 -10 90 -41t33 -96q0 -31 -12 -60.5t-35 -54t-56.5 -40t-78.5 -13.5q-27 0 -51.5 5t-42.5 9q-23 6 -43 13l43 106q10 -4 22 -8q10 -4 23.5 -6t29.5 -2q70 0 72 53q2 29 -18.5 42t-71.5 13h-35q0 2 4 20.5t8.5 44t9.5 51.5 t9 44q-78 14 -141.5 49t-107.5 99.5t-67.5 159.5t-23.5 229z" />
<glyph unicode="&#xe8;" horiz-adv-x="1058" d="M82 530q0 137 36 237.5t99.5 165t147.5 95.5t182 31q96 0 175 -25.5t136 -85t88 -158t31 -241.5v-42t-2 -34h-694q0 -90 23.5 -150.5t67.5 -97.5t104 -53t134 -16q59 0 115.5 11t97.5 26q49 16 90 38l66 -141q-47 -29 -109 -51q-53 -20 -129.5 -35.5t-175.5 -15.5 q-236 0 -359.5 132t-123.5 410zM283 614h501q-2 78 -26 140q-10 27 -27.5 51t-42 44.5t-57.5 33t-78 12.5q-139 0 -202.5 -70.5t-67.5 -210.5zM334 1323l65 127l324 -195l-49 -96z" />
<glyph unicode="&#xe9;" horiz-adv-x="1058" d="M82 530q0 137 36 237.5t99.5 165t147.5 95.5t182 31q96 0 175 -25.5t136 -85t88 -158t31 -241.5v-42t-2 -34h-694q0 -90 23.5 -150.5t67.5 -97.5t104 -53t134 -16q59 0 115.5 11t97.5 26q49 16 90 38l66 -141q-47 -29 -109 -51q-53 -20 -129.5 -35.5t-175.5 -15.5 q-236 0 -359.5 132t-123.5 410zM283 614h501q-2 78 -26 140q-10 27 -27.5 51t-42 44.5t-57.5 33t-78 12.5q-139 0 -202.5 -70.5t-67.5 -210.5zM334 1255l323 195l66 -127l-340 -164z" />
<glyph unicode="&#xea;" horiz-adv-x="1058" d="M82 530q0 137 36 237.5t99.5 165t147.5 95.5t182 31q96 0 175 -25.5t136 -85t88 -158t31 -241.5v-42t-2 -34h-694q0 -90 23.5 -150.5t67.5 -97.5t104 -53t134 -16q59 0 115.5 11t97.5 26q49 16 90 38l66 -141q-47 -29 -109 -51q-53 -20 -129.5 -35.5t-175.5 -15.5 q-236 0 -359.5 132t-123.5 410zM252 1274l289 176l288 -176l-45 -96l-243 114l-244 -114zM283 614h501q-2 78 -26 140q-10 27 -27.5 51t-42 44.5t-57.5 33t-78 12.5q-139 0 -202.5 -70.5t-67.5 -210.5z" />
<glyph unicode="&#xeb;" horiz-adv-x="1058" d="M82 530q0 137 36 237.5t99.5 165t147.5 95.5t182 31q96 0 175 -25.5t136 -85t88 -158t31 -241.5v-42t-2 -34h-694q0 -90 23.5 -150.5t67.5 -97.5t104 -53t134 -16q59 0 115.5 11t97.5 26q49 16 90 38l66 -141q-47 -29 -109 -51q-53 -20 -129.5 -35.5t-175.5 -15.5 q-236 0 -359.5 132t-123.5 410zM227 1290q0 49 31 81t74 32q47 0 77.5 -32t30.5 -81q0 -43 -30.5 -74.5t-77.5 -31.5q-43 0 -74 31.5t-31 74.5zM283 614h501q-2 78 -26 140q-10 27 -27.5 51t-42 44.5t-57.5 33t-78 12.5q-139 0 -202.5 -70.5t-67.5 -210.5zM616 1290 q0 49 31 81t74 32q47 0 77.5 -32t30.5 -81q0 -43 -30.5 -74.5t-77.5 -31.5q-43 0 -74 31.5t-31 74.5z" />
<glyph unicode="&#xec;" horiz-adv-x="481" d="M47 1323l66 127l323 -195l-49 -96zM143 0v1047h195v-979q0 -37 -16.5 -52.5t-53.5 -15.5h-125z" />
<glyph unicode="&#xed;" horiz-adv-x="481" d="M47 1255l324 195l65 -127l-340 -164zM143 0v1047h195v-979q0 -37 -16.5 -52.5t-53.5 -15.5h-125z" />
<glyph unicode="&#xee;" horiz-adv-x="481" d="M-47 1274l289 176l288 -176l-45 -96l-243 114l-244 -114zM143 0v1047h195v-979q0 -37 -16.5 -52.5t-53.5 -15.5h-125z" />
<glyph unicode="&#xef;" horiz-adv-x="481" d="M-59 1290q0 49 30.5 81t73.5 32q47 0 78 -32t31 -81q0 -43 -31 -74.5t-78 -31.5q-43 0 -73.5 31.5t-30.5 74.5zM143 0v1047h195v-979q0 -37 -16.5 -52.5t-53.5 -15.5h-125zM330 1290q0 49 30.5 81t73.5 32q47 0 78 -32t31 -81q0 -43 -31 -74.5t-78 -31.5 q-43 0 -73.5 31.5t-30.5 74.5z" />
<glyph unicode="&#xf1;" horiz-adv-x="1118" d="M143 0v1044h197v-112q41 35 92 63q43 23 101.5 43.5t128.5 20.5q147 0 235 -92.5t88 -251.5v-647q0 -37 -16.5 -52.5t-53.5 -15.5h-124v729q0 76 -41 119t-115 41q-51 -2 -102.5 -20.5t-94.5 -41.5q-51 -27 -98 -59v-768h-197zM299 1278q23 31 47 53q23 20 50.5 36.5 t62.5 16.5q31 0 58.5 -12t52 -26.5t46 -26.5t43.5 -12q23 0 42.5 7t33.5 17q16 10 29 27l53 -82q-23 -27 -47 -49q-23 -18 -50.5 -33.5t-60.5 -15.5q-37 0 -65.5 12t-53 27.5t-47 27.5t-44.5 12q-23 0 -40.5 -10t-31.5 -20q-16 -14 -29 -31z" />
<glyph unicode="&#xf2;" horiz-adv-x="1091" d="M82 541q0 135 38 233t102.5 161.5t147.5 93.5t175 30q84 0 167 -31t149.5 -95.5t107.5 -167.5t41 -247q0 -143 -41 -244.5t-107.5 -165t-149.5 -92t-167 -28.5q-92 0 -176 28.5t-147.5 94t-101.5 171t-38 259.5zM281 541q0 -104 15 -176t48 -117t83 -64.5t120 -19.5 q125 0 193.5 84t68.5 293q0 186 -67.5 270t-194.5 84q-139 0 -202.5 -84t-63.5 -270zM350 1323l66 127l323 -195l-49 -96z" />
<glyph unicode="&#xf3;" horiz-adv-x="1091" d="M82 541q0 135 38 233t102.5 161.5t147.5 93.5t175 30q84 0 167 -31t149.5 -95.5t107.5 -167.5t41 -247q0 -143 -41 -244.5t-107.5 -165t-149.5 -92t-167 -28.5q-92 0 -176 28.5t-147.5 94t-101.5 171t-38 259.5zM281 541q0 -104 15 -176t48 -117t83 -64.5t120 -19.5 q125 0 193.5 84t68.5 293q0 186 -67.5 270t-194.5 84q-139 0 -202.5 -84t-63.5 -270zM350 1255l324 195l65 -127l-340 -164z" />
<glyph unicode="&#xf4;" horiz-adv-x="1091" d="M82 541q0 135 38 233t102.5 161.5t147.5 93.5t175 30q84 0 167 -31t149.5 -95.5t107.5 -167.5t41 -247q0 -143 -41 -244.5t-107.5 -165t-149.5 -92t-167 -28.5q-92 0 -176 28.5t-147.5 94t-101.5 171t-38 259.5zM256 1274l289 176l289 -176l-46 -96l-243 114l-244 -114z M281 541q0 -104 15 -176t48 -117t83 -64.5t120 -19.5q125 0 193.5 84t68.5 293q0 186 -67.5 270t-194.5 84q-139 0 -202.5 -84t-63.5 -270z" />
<glyph unicode="&#xf5;" horiz-adv-x="1091" d="M82 541q0 135 38 233t102.5 161.5t147.5 93.5t175 30q84 0 167 -31t149.5 -95.5t107.5 -167.5t41 -247q0 -143 -41 -244.5t-107.5 -165t-149.5 -92t-167 -28.5q-92 0 -176 28.5t-147.5 94t-101.5 171t-38 259.5zM281 541q0 -104 15 -176t48 -117t83 -64.5t120 -19.5 q125 0 193.5 84t68.5 293q0 186 -67.5 270t-194.5 84q-139 0 -202.5 -84t-63.5 -270zM287 1278q23 31 47 53q23 20 50.5 36.5t61.5 16.5q31 0 58.5 -12t52.5 -26.5t46.5 -26.5t43.5 -12q23 0 42.5 7t33.5 17q16 10 29 27l53 -82q-23 -27 -47 -49q-23 -18 -50.5 -33.5 t-60.5 -15.5q-37 0 -65.5 12t-53 27.5t-47 27.5t-45.5 12t-40 -10t-31 -20q-16 -14 -29 -31z" />
<glyph unicode="&#xf6;" horiz-adv-x="1091" d="M82 541q0 135 38 233t102.5 161.5t147.5 93.5t175 30q84 0 167 -31t149.5 -95.5t107.5 -167.5t41 -247q0 -143 -41 -244.5t-107.5 -165t-149.5 -92t-167 -28.5q-92 0 -176 28.5t-147.5 94t-101.5 171t-38 259.5zM244 1290q0 49 30.5 81t73.5 32q47 0 78 -32t31 -81 q0 -43 -31 -74.5t-78 -31.5q-43 0 -73.5 31.5t-30.5 74.5zM281 541q0 -104 15 -176t48 -117t83 -64.5t120 -19.5q125 0 193.5 84t68.5 293q0 186 -67.5 270t-194.5 84q-139 0 -202.5 -84t-63.5 -270zM633 1290q0 49 30.5 81t73.5 32q47 0 78 -32t31 -81q0 -43 -31 -74.5 t-78 -31.5q-43 0 -73.5 31.5t-30.5 74.5z" />
<glyph unicode="&#xf7;" horiz-adv-x="890" d="M0 389v129h891v-129h-891zM311 119q0 57 40 97t93 40q57 0 96.5 -40t39.5 -97q0 -53 -39.5 -93t-96.5 -40q-53 0 -93 40t-40 93zM311 782q0 57 40 97.5t93 40.5q57 0 96.5 -40t39.5 -98q0 -53 -39.5 -93t-96.5 -40q-53 0 -93 40t-40 93z" />
<glyph unicode="&#xf8;" horiz-adv-x="1091" d="M82 541q0 135 38 233t102.5 161.5t147.5 93.5t175 30q98 0 192 -41l27 43h186l-84 -135q66 -66 105 -166.5t39 -241.5q0 -143 -41 -244.5t-107.5 -165t-149.5 -92t-167 -28.5q-59 0 -115.5 11t-107.5 36q-33 -35 -82 -35h-121l82 133q-55 66 -87 166t-32 242zM281 541 q0 -72 6 -128.5t22 -99.5l342 564q-47 18 -104 18q-139 0 -202.5 -84t-63.5 -270zM418 186q47 -23 129 -22q125 0 193.5 84t68.5 293q0 137 -41 223z" />
<glyph unicode="&#xf9;" horiz-adv-x="1118" d="M133 332v715h195v-707q0 -76 41 -127t114 -55q63 -4 116.5 19.5t94.5 53.5q47 37 84 82v734h197v-979q0 -37 -16.5 -52.5t-53.5 -15.5h-127v150q-35 -45 -84 -82q-41 -31 -100 -55.5t-137 -24.5q-147 0 -235.5 92t-88.5 252zM365 1323l65 127l324 -195l-49 -96z" />
<glyph unicode="&#xfa;" horiz-adv-x="1118" d="M133 332v715h195v-707q0 -76 41 -127t114 -55q63 -4 116.5 19.5t94.5 53.5q47 37 84 82v734h197v-979q0 -37 -16.5 -52.5t-53.5 -15.5h-127v150q-35 -45 -84 -82q-41 -31 -100 -55.5t-137 -24.5q-147 0 -235.5 92t-88.5 252zM365 1255l323 195l66 -127l-340 -164z" />
<glyph unicode="&#xfb;" horiz-adv-x="1118" d="M133 332v715h195v-707q0 -76 41 -127t114 -55q63 -4 116.5 19.5t94.5 53.5q47 37 84 82v734h197v-979q0 -37 -16.5 -52.5t-53.5 -15.5h-127v150q-35 -45 -84 -82q-41 -31 -100 -55.5t-137 -24.5q-147 0 -235.5 92t-88.5 252zM270 1274l289 176l289 -176l-45 -96l-244 114 l-244 -114z" />
<glyph unicode="&#xfc;" horiz-adv-x="1118" d="M133 332v715h195v-707q0 -76 41 -127t114 -55q63 -4 116.5 19.5t94.5 53.5q47 37 84 82v734h197v-979q0 -37 -16.5 -52.5t-53.5 -15.5h-127v150q-35 -45 -84 -82q-41 -31 -100 -55.5t-137 -24.5q-147 0 -235.5 92t-88.5 252zM258 1290q0 49 30.5 81t73.5 32q47 0 78 -32 t31 -81q0 -43 -31 -74.5t-78 -31.5q-43 0 -73.5 31.5t-30.5 74.5zM647 1290q0 49 31 81t74 32q47 0 77.5 -32t30.5 -81q0 -43 -30.5 -74.5t-77.5 -31.5q-43 0 -74 31.5t-31 74.5z" />
<glyph unicode="&#xfd;" horiz-adv-x="993" d="M27 1047h213l260 -854l270 854h199l-445 -1237q-35 -98 -83 -157t-103 -90.5t-116.5 -40.5t-125.5 -9v161q55 0 94 8.5t69 28t52.5 51t42.5 78.5q10 27 25.5 68t26.5 72zM301 1255l324 195l65 -127l-340 -164z" />
<glyph unicode="&#xfe;" horiz-adv-x="1093" d="M143 -440v1874h195v-392q47 8 94 12.5t96 4.5q96 0 184.5 -26.5t155 -86t105.5 -154t39 -229.5q0 -152 -40 -258t-105.5 -176t-150.5 -101.5t-177 -31.5q-27 0 -61 3t-64 7q-37 4 -74 10v-417zM338 182q27 -6 59 -12q57 -10 135 -10q121 0 199 86t78 280q0 197 -73.5 282 t-207.5 85q-29 0 -62.5 -3t-62.5 -7q-35 -4 -65 -9v-692z" />
<glyph unicode="&#xff;" horiz-adv-x="993" d="M27 1047h213l260 -854l270 854h199l-445 -1237q-35 -98 -83 -157t-103 -90.5t-116.5 -40.5t-125.5 -9v161q55 0 94 8.5t69 28t52.5 51t42.5 78.5q10 27 25.5 68t26.5 72zM195 1290q0 49 30.5 81t73.5 32q47 0 78 -32t31 -81q0 -43 -31 -74.5t-78 -31.5q-43 0 -73.5 31.5 t-30.5 74.5zM584 1290q0 49 30.5 81t73.5 32q47 0 78 -32t31 -81q0 -43 -31 -74.5t-78 -31.5q-43 0 -73.5 31.5t-30.5 74.5z" />
<glyph unicode="&#x152;" horiz-adv-x="1986" d="M92 739q0 156 36 286t108.5 224t180 146.5t251.5 52.5q123 0 215 -41t159 -113v140h859v-162h-664v-443h614v-163h-614v-492h664v-108q0 -66 -70 -66h-789v152q-72 -76 -167 -119t-218 -43q-150 0 -256 51t-174.5 147.5t-101.5 235.5t-33 315zM301 729q0 -561 354 -561 q193 0 287 136t94 427q0 289 -97 419t-257 130q-86 0 -156.5 -31.5t-120 -98.5t-77 -171.5t-27.5 -249.5z" />
<glyph unicode="&#x153;" horiz-adv-x="1785" d="M82 541q0 135 38 233t102.5 161.5t147.5 93.5t175 30q104 0 200.5 -48t155.5 -155q57 104 153.5 153.5t219.5 49.5q96 0 175 -25.5t136 -85t88 -158t31 -241.5v-42t-2 -34h-694q0 -90 23.5 -150.5t67.5 -97.5t104 -53t134 -16q59 0 115.5 11t97.5 26q49 16 90 38l66 -141 q-47 -29 -109 -51q-53 -20 -129.5 -35.5t-175.5 -15.5q-283 0 -391 196q-59 -104 -155.5 -150t-200.5 -46q-92 0 -176 28.5t-147.5 94t-101.5 171t-38 259.5zM281 541q0 -104 15 -176t48 -117t83 -64.5t120 -19.5q125 0 193.5 84t68.5 293q0 186 -67.5 270t-194.5 84 q-139 0 -202.5 -84t-63.5 -270zM1010 614h501q-2 78 -26 140q-10 27 -27.5 51t-42 44.5t-57.5 33t-78 12.5q-139 0 -202.5 -70.5t-67.5 -210.5z" />
<glyph unicode="&#x178;" horiz-adv-x="1218" d="M57 1434h232l319 -648l326 648h231l-463 -856v-517q0 -35 -15 -48t-50 -13h-129v578zM307 1677q0 49 31 81t74 32q47 0 77.5 -32t30.5 -81q0 -43 -30.5 -74.5t-77.5 -31.5q-43 0 -74 31.5t-31 74.5zM696 1677q0 49 31 81t74 32q47 0 77.5 -32t30.5 -81q0 -43 -30.5 -74.5 t-77.5 -31.5q-43 0 -74 31.5t-31 74.5z" />
<glyph unicode="&#x2c6;" horiz-adv-x="675" d="M47 1274l289 176l289 -176l-45 -96l-244 114l-244 -114z" />
<glyph unicode="&#x2dc;" horiz-adv-x="675" d="M80 1278q23 31 47 53q23 20 50.5 36.5t62.5 16.5q31 0 58.5 -12t52 -26.5t46 -26.5t43.5 -12q23 0 42.5 7t33.5 17q16 10 29 27l53 -82q-23 -27 -47 -49q-23 -18 -50.5 -33.5t-60.5 -15.5q-37 0 -65.5 12t-53 27.5t-47 27.5t-45.5 12t-40 -10t-31 -20q-16 -14 -29 -31z " />
<glyph unicode="&#x2000;" horiz-adv-x="918" />
<glyph unicode="&#x2001;" horiz-adv-x="1837" />
<glyph unicode="&#x2002;" horiz-adv-x="918" />
<glyph unicode="&#x2003;" horiz-adv-x="1837" />
<glyph unicode="&#x2004;" horiz-adv-x="612" />
<glyph unicode="&#x2005;" horiz-adv-x="459" />
<glyph unicode="&#x2006;" horiz-adv-x="306" />
<glyph unicode="&#x2007;" horiz-adv-x="306" />
<glyph unicode="&#x2008;" horiz-adv-x="229" />
<glyph unicode="&#x2009;" horiz-adv-x="367" />
<glyph unicode="&#x200a;" horiz-adv-x="102" />
<glyph unicode="&#x2010;" horiz-adv-x="690" d="M70 473v141h551v-141h-551z" />
<glyph unicode="&#x2011;" horiz-adv-x="690" d="M70 473v141h551v-141h-551z" />
<glyph unicode="&#x2012;" horiz-adv-x="690" d="M70 473v141h551v-141h-551z" />
<glyph unicode="&#x2013;" horiz-adv-x="997" d="M72 473v141h854v-141h-854z" />
<glyph unicode="&#x2014;" horiz-adv-x="1703" d="M72 473v141h1562v-141h-1562z" />
<glyph unicode="&#x2018;" horiz-adv-x="471" d="M44 1235q7 53 22.5 96t37 76t46.5 57q55 57 133 86l34 -82q-86 -39 -112.5 -102t-5.5 -117q57 10 88.5 -20.5t38.5 -79.5q6 -53 -24.5 -99.5t-96.5 -52.5q-66 -10 -109 26t-51 93q-8 66 -1 119z" />
<glyph unicode="&#x2019;" horiz-adv-x="471" d="M129 1382q-6 53 24.5 99.5t96.5 52.5q66 10 108.5 -25.5t51.5 -93.5q14 -131 -22 -215t-83 -133q-55 -57 -133 -86l-35 82q86 39 112.5 102.5t6.5 116.5q-57 -10 -89 20.5t-38 79.5z" />
<glyph unicode="&#x201a;" horiz-adv-x="509" d="M129 104q-6 53 24.5 99.5t96.5 52.5q66 10 108.5 -25.5t51.5 -93.5q14 -131 -22 -215t-83 -133q-55 -57 -133 -86l-35 82q86 39 112.5 102.5t6.5 116.5q-57 -10 -89 20.5t-38 79.5z" />
<glyph unicode="&#x201c;" horiz-adv-x="921" d="M44 1235q7 53 22.5 96t37 76t46.5 57q55 57 133 86l34 -82q-86 -39 -112.5 -102t-5.5 -117q57 10 88.5 -20.5t38.5 -79.5q6 -53 -24.5 -99.5t-96.5 -52.5q-66 -10 -109 26t-51 93q-8 66 -1 119zM478 1235q7 53 22.5 96t37 76t46.5 57q55 57 133 86l35 -82 q-86 -39 -113 -102t-6 -117q57 10 89 -20.5t38 -79.5q6 -53 -24.5 -99.5t-96.5 -52.5q-66 -10 -109 26t-51 93q-8 66 -1 119z" />
<glyph unicode="&#x201d;" horiz-adv-x="921" d="M154 1382q-6 53 24 99.5t96 52.5q66 10 109 -25.5t51 -93.5q14 -131 -21.5 -215t-82.5 -133q-55 -57 -133 -86l-35 82q86 39 112.5 102.5t6.5 116.5q-57 -10 -89 20.5t-38 79.5zM580 1382q-6 53 24 99.5t96 52.5q66 10 109 -25.5t51 -93.5q14 -131 -21.5 -215t-82.5 -133 q-55 -57 -133 -86l-35 82q86 39 112.5 102.5t6.5 116.5q-57 -10 -89 20.5t-38 79.5z" />
<glyph unicode="&#x201e;" horiz-adv-x="919" d="M129 104q-6 53 24.5 99.5t96.5 52.5q66 10 108.5 -25.5t51.5 -93.5q14 -131 -22 -215t-83 -133q-55 -57 -133 -86l-35 82q86 39 112.5 102.5t6.5 116.5q-57 -10 -89 20.5t-38 79.5zM520 104q-6 53 24.5 99.5t96.5 52.5q66 10 109 -25.5t51 -93.5q14 -131 -22 -215 t-83 -133q-55 -57 -133 -86l-35 82q86 39 113 102.5t6 116.5q-57 -10 -89 20.5t-38 79.5z" />
<glyph unicode="&#x2022;" horiz-adv-x="677" d="M86 602q0 51 18.5 95t51 77t76.5 52.5t96 19.5q51 0 95 -19.5t76.5 -52.5t52 -77t19.5 -95t-19.5 -95t-52 -77t-76.5 -51.5t-95 -18.5t-95.5 18.5t-77 51.5t-51 77t-18.5 95z" />
<glyph unicode="&#x2026;" horiz-adv-x="1155" d="M66 119q0 57 39.5 97t93.5 40q57 0 96 -40t39 -97q0 -53 -39 -93t-96 -40q-53 0 -93 40t-40 93zM444 119q0 57 40 97t94 40q57 0 96 -40t39 -97q0 -53 -39 -93t-96 -40q-53 0 -93.5 40t-40.5 93zM819 119q0 57 40 97t93 40q57 0 96 -40t39 -97q0 -53 -39 -93t-96 -40 q-53 0 -93 40t-40 93z" />
<glyph unicode="&#x202f;" horiz-adv-x="367" />
<glyph unicode="&#x2039;" horiz-adv-x="614" d="M63 535l343 524l135 -78l-289 -446l289 -441l-140 -82z" />
<glyph unicode="&#x203a;" horiz-adv-x="614" d="M92 94l289 441l-289 446l135 78l342 -524l-338 -523z" />
<glyph unicode="&#x205f;" horiz-adv-x="459" />
<glyph unicode="&#x20ac;" horiz-adv-x="1116" d="M-27 506l27 129h94q-2 23 -2 48.5v51.5v35.5t2 36.5h-121l27 129h109q23 133 77 230.5t131.5 160t176 92t211.5 29.5q70 0 131 -8t108 -19q53 -12 100 -26l-45 -160q-47 14 -100 25q-45 10 -99.5 17t-105.5 3q-141 -10 -237.5 -91t-132.5 -253h464l-26 -129h-455 q-2 -20 -2 -39.5v-40.5v-47.5t2 -44.5h426l-26 -129h-390q14 -90 43 -152.5t75 -101.5t111.5 -58.5t153.5 -23.5q57 -4 112.5 3t102.5 17q53 10 103 27l41 -164q-51 -18 -111 -33q-51 -12 -118.5 -22t-143.5 -10q-106 0 -201.5 24.5t-171 85t-129 159.5t-75.5 249h-136z" />
<glyph unicode="&#x2122;" horiz-adv-x="956" d="M102 1364v70h275v-70h-98v-307q0 -18 -19 -19h-55v326h-103zM426 1038v396h98l115 -301l113 301h98v-377q0 -18 -19 -19h-61v256l-94 -256h-80l-92 240v-240h-78z" />
<glyph unicode="&#x25fc;" horiz-adv-x="1044" d="M0 0v1044h1044v-1044h-1044z" />
<glyph unicode="&#xfb01;" horiz-adv-x="1179" d="M43 887v160h172v104q0 90 28.5 162.5t81 125t126 81t163.5 28.5q78 0 139.5 -11t106.5 -26q53 -16 92 -34l-61 -152q-33 16 -74 31q-35 10 -86 20t-117 10q-98 0 -152 -52t-54 -165v-122h278v-160h-278v-819q0 -37 -16.5 -52.5t-53.5 -15.5h-123v887h-172zM858 0v1047 h195v-979q0 -37 -16.5 -52.5t-53.5 -15.5h-125z" />
<glyph unicode="&#xfb02;" horiz-adv-x="1288" d="M43 887v160h172v104q0 90 29.5 162.5t84 125t130.5 81t166 28.5q76 0 140 -11t116.5 -29.5t93.5 -40t72 -40.5v-1142q0 -119 114 -119h74v-98q0 -37 -16.5 -51.5t-53.5 -16.5h-26q-141 2 -214 74.5t-73 208.5v1065q-35 12 -91 25t-136 13q-98 0 -157.5 -52t-59.5 -165 v-122h278v-160h-278v-819q0 -37 -16.5 -52.5t-53.5 -15.5h-123v887h-172z" />
</font>
</defs>
</svg>
